<svg width="252" height="62" viewBox="0 0 252 62" fill="none" xmlns="http://www.w3.org/2000/svg">
<g id="Group 2">
<g id="Group 545896">
<path id="Vector" d="M106.674 9.95328C107.04 10.167 107.315 10.4723 107.498 10.8081C107.681 11.144 107.651 11.5714 107.407 12.0599L101.85 19.9368C101.606 20.3032 101.362 20.5169 101.087 20.578C100.812 20.639 100.476 20.5474 100.079 20.3032C99.0108 19.4788 97.8201 18.8682 96.5378 18.4408C95.2555 18.0134 93.8816 17.7691 92.4162 17.7691C90.6149 17.7691 88.9662 18.105 87.4702 18.7766C85.9742 19.4483 84.6614 20.3948 83.5623 21.5549C82.4632 22.7456 81.6083 24.1195 80.9977 25.7071C80.3871 27.2947 80.0818 28.9739 80.0818 30.7752C80.0818 32.5765 80.3871 34.2557 80.9977 35.8127C81.6083 37.3698 82.4632 38.7437 83.5623 39.9039C84.6614 41.064 85.9742 42.0105 87.4702 42.6821C88.9662 43.3538 90.6454 43.6897 92.4162 43.6897C93.8511 43.6897 95.2555 43.4759 96.5683 43.018C97.8812 42.56 99.0719 41.9494 100.14 41.1251C100.537 40.8808 100.873 40.7892 101.117 40.8198C101.392 40.8503 101.636 41.064 101.911 41.3999L107.529 49.4905C107.773 49.979 107.804 50.3759 107.62 50.7117C107.437 51.0475 107.162 51.3223 106.796 51.536C104.751 52.9099 102.522 53.9785 100.14 54.7417C97.759 55.505 95.2555 55.8714 92.6299 55.8714C90.3096 55.8714 88.0808 55.5661 85.9437 54.986C83.8065 54.4059 81.822 53.5511 79.9597 52.452C78.0973 51.3528 76.4181 50.04 74.8916 48.5135C73.365 46.987 72.0522 45.3078 70.9531 43.4454C69.854 41.583 69.0297 39.5985 68.4191 37.4614C67.839 35.3243 67.5337 33.0955 67.5337 30.7752C67.5337 28.4549 67.839 26.2261 68.4191 24.089C68.9992 21.9518 69.854 19.9368 70.9531 18.0744C72.0522 16.2121 73.365 14.5024 74.8916 12.9758C76.4181 11.4493 78.0973 10.1365 79.9597 9.03737C81.822 7.93826 83.8065 7.11393 85.9437 6.50332C88.0808 5.89271 90.3096 5.5874 92.6299 5.5874C95.2555 5.5874 97.7285 5.95377 100.079 6.68651C102.43 7.51083 104.628 8.57941 106.674 9.95328Z" fill="#F2C649"/>
<path id="Vector_2" d="M129.725 7.69391C129.755 7.57179 129.816 7.41913 129.938 7.26648C130.06 7.11383 130.213 6.96117 130.396 6.83905C130.58 6.71693 130.763 6.5948 130.946 6.53374C131.129 6.47268 131.343 6.41162 131.495 6.41162H139.891C140.258 6.41162 140.594 6.53374 140.838 6.74746C141.113 6.9917 141.296 7.17489 141.418 7.35807L142.242 9.22044L159.492 53.7036C159.675 54.131 159.645 54.4974 159.4 54.7722C159.156 55.0469 158.729 55.1691 158.149 55.1691H148.715C148.196 55.1691 147.829 55.0775 147.555 54.8943C147.28 54.7111 147.066 54.4058 146.913 53.9478C146.486 52.8182 146.059 51.7191 145.631 50.62C145.204 49.5209 144.807 48.3913 144.379 47.2922H126.946C126.519 48.4218 126.122 49.5209 125.695 50.62C125.267 51.7191 124.84 52.8487 124.443 53.9478C124.168 54.7722 123.588 55.1691 122.764 55.1691H113.085C112.658 55.1691 112.322 55.0469 112.047 54.8332C111.773 54.6195 111.712 54.2837 111.895 53.8562L129.725 7.69391ZM135.678 21.738C135.251 22.8676 134.854 24.0583 134.426 25.3406C133.999 26.6229 133.572 27.9357 133.175 29.2485C132.747 30.5614 132.35 31.8742 131.923 33.1565C131.495 34.4388 131.068 35.6295 130.671 36.7591H140.746L135.678 21.738Z" fill="#F2C649"/>
<path id="Vector_3" d="M170.208 7.84656C170.208 7.44966 170.33 7.11383 170.574 6.83905C170.819 6.56427 171.185 6.41162 171.673 6.41162H181.321C181.657 6.41162 181.993 6.53374 182.359 6.80852C182.726 7.0833 182.909 7.41913 182.909 7.84656V53.7341C182.909 54.7111 182.359 55.1691 181.291 55.1691H171.643C170.666 55.1691 170.208 54.6806 170.208 53.7341V7.84656Z" fill="white"/>
<path id="Vector_4" d="M184.527 6.41162C184.894 6.41162 185.199 6.53374 185.474 6.77799C185.748 7.02223 185.871 7.3886 185.871 7.87709V17.5248C185.871 17.8606 185.748 18.1965 185.504 18.5628C185.26 18.9292 184.924 19.1124 184.527 19.1124H168.499C167.613 19.1124 167.155 18.5628 167.155 17.4942V7.84656C167.155 6.86958 167.613 6.41162 168.499 6.41162H184.527Z" fill="white"/>
<path id="Vector_5" d="M185.443 42.4683C185.596 42.4683 185.718 42.5904 185.809 42.8346C185.901 43.0789 185.962 43.4452 185.962 43.9337V53.5814C185.962 53.9173 185.901 54.2531 185.809 54.6195C185.718 54.9858 185.596 55.169 185.412 55.169H167.674C167.308 55.169 167.125 54.6195 167.125 53.5509V43.9032C167.125 42.9262 167.308 42.4683 167.674 42.4683H185.443Z" fill="white"/>
<path id="Vector_6" d="M207.974 6.41162C208.341 6.41162 208.646 6.53374 208.921 6.77799C209.196 7.02223 209.318 7.3886 209.318 7.87709V17.5248C209.318 17.8606 209.196 18.1965 208.951 18.5628C208.707 18.9292 208.371 19.1124 207.974 19.1124H191.946C191.061 19.1124 190.603 18.5628 190.603 17.4942V7.84656C190.603 6.86958 191.061 6.41162 191.946 6.41162H207.974Z" fill="white"/>
<path id="Vector_7" d="M208.86 42.4683C209.013 42.4683 209.135 42.5904 209.226 42.8346C209.318 43.0789 209.379 43.4452 209.379 43.9337V53.5814C209.379 53.9173 209.318 54.2531 209.226 54.6195C209.135 54.9858 209.013 55.169 208.83 55.169H191.122C190.755 55.169 190.572 54.6195 190.572 53.5509V43.9032C190.572 42.9262 190.755 42.4683 191.122 42.4683H208.86Z" fill="white"/>
<path id="Vector_8" d="M193.625 7.84656C193.625 7.44966 193.747 7.11383 193.991 6.83905C194.236 6.56427 194.602 6.41162 195.09 6.41162H204.738C205.074 6.41162 205.41 6.53374 205.776 6.80852C206.143 7.0833 206.326 7.41913 206.326 7.84656V53.7341C206.326 54.7111 205.776 55.1691 204.708 55.1691H195.09C194.113 55.1691 193.656 54.6806 193.656 53.7341V7.84656H193.625Z" fill="white"/>
<path id="Vector_9" d="M217.775 7.90739C217.775 7.44943 217.897 7.08306 218.141 6.80829C218.386 6.53351 218.691 6.41139 219.057 6.38086H250.504C251.023 6.38086 251.389 6.53351 251.633 6.80829C251.878 7.08306 252 7.47996 252 7.96845V16.0896C252 16.456 251.878 16.8223 251.603 17.1582C251.328 17.494 250.962 17.6772 250.443 17.6772H230.476V27.8744H245.222C245.649 27.8744 245.985 27.9966 246.26 28.2103C246.535 28.4545 246.687 28.8209 246.687 29.3094V37.1558C246.687 37.5221 246.565 37.8885 246.321 38.2243C246.077 38.5602 245.71 38.7433 245.283 38.7433H230.476V53.795C230.476 54.7414 229.957 55.1994 228.98 55.1994H218.966C218.172 55.0772 217.775 54.6193 217.775 53.8255V7.90739Z" fill="white"/>
<g id="Group">
<path id="Vector_10" d="M30.8053 5.12933L35.7513 6.56427V28.2105C35.7513 28.5463 35.8734 28.9127 36.0871 29.1569L37.1557 30.4392L36.0871 31.7215C35.8734 31.9963 35.7513 32.3321 35.7513 32.668V54.4058L30.8053 56.1155L25.8593 54.4058V32.729C25.8593 32.3932 25.7372 32.0574 25.5235 31.7826L24.4244 30.5003L25.493 29.2485C25.7067 28.9738 25.8593 28.6379 25.8593 28.2716V6.56427L30.8053 5.12933ZM30.8053 3.57227L24.3633 5.43464V28.2716L22.501 30.4698L24.3633 32.7596V55.5049L30.8053 57.7642L37.2473 55.5049V32.729L39.1097 30.4698L37.2473 28.2105V5.46517L30.8053 3.57227Z" fill="#F2C649"/>
</g>
<g id="Group_2">
<path id="Vector_11" d="M17.2802 10.1363L32.6065 25.4627C32.8508 25.7069 33.1866 25.8596 33.5225 25.8901L35.2017 26.0428L35.3543 27.7219C35.3848 28.0578 35.5375 28.3936 35.7817 28.6379L51.1386 43.9948L48.8488 48.727L44.1166 51.0168L28.7902 35.6904C28.546 35.4462 28.2101 35.2935 27.8743 35.263L26.1646 35.0798L26.0425 33.4312C26.0119 33.0648 25.8593 32.7595 25.615 32.4847L10.2581 17.1278L12.7311 12.6093L17.2802 10.1363ZM17.5244 8.27393L11.6625 11.5102L8.42627 17.4026L24.577 33.5533L24.8212 36.4537L27.7522 36.759L43.8418 52.8487L49.9785 49.8872L52.94 43.7505L36.8198 27.6304L36.545 24.7299L33.6446 24.4552L17.5244 8.27393Z" fill="#F2C649"/>
</g>
<g id="Group_3">
<path id="Vector_12" d="M30.6221 24.3026L31.9044 25.3712C32.1792 25.5849 32.515 25.707 32.8508 25.707H54.5887L56.2984 30.653L54.5887 35.5989H32.9119C32.5761 35.5989 32.2402 35.7211 31.9655 35.9348L30.6526 37.0033L29.4009 35.9348C29.1261 35.7211 28.7903 35.5684 28.4239 35.5684H6.71661L5.28167 30.6224L6.71661 25.707H28.3628C28.6987 25.707 29.0651 25.5849 29.3093 25.3712L30.6221 24.3026ZM30.6221 22.3486L28.3628 24.211H5.58698L3.72461 30.653L5.58698 37.0949H28.3934L30.5916 38.9573L32.8814 37.0949H55.6267L57.886 30.653L55.6267 24.211H32.8508L30.6221 22.3486Z" fill="#F2C649"/>
</g>
</g>
<g id="Group_4">
<path id="Vector_13" d="M44.1169 10.3501L48.8491 12.6399L51.1389 17.3722L35.8125 32.6986C35.5683 32.9428 35.4156 33.2787 35.3851 33.6145L35.2019 35.3242L33.5532 35.4463C33.1869 35.4769 32.8816 35.6295 32.6068 35.8738L17.2499 51.2307L12.7313 48.7577L10.2584 44.2392L25.5848 28.9128C25.829 28.6685 25.9816 28.3327 26.0122 27.9969L26.1648 26.3177L27.844 26.165C28.1799 26.1345 28.5157 25.9818 28.7599 25.7376L44.1169 10.3501ZM43.8115 8.54883L27.6914 24.669L24.791 24.9438L24.5162 27.8442L8.396 43.9644L11.6322 49.8568L17.5247 53.093L33.6754 36.9423L36.5758 36.6981L36.8811 33.7671L52.9707 17.6775L50.0093 11.5408L43.8115 8.54883Z" fill="#F2C649"/>
</g>
<g id="Group_5">
<path id="Vector_14" d="M59.0463 38.1328H48.5132L55.9627 45.5823L52.5738 52.5738L45.6128 55.9627L38.1328 48.4827V59.0463L30.8054 61.6109L23.4781 59.0463V48.4827L15.7233 56.268L9.03707 52.5738L5.34286 45.8876L13.1282 38.1328H2.13715L0 30.8054L2.13715 23.4781H13.1282L5.34286 15.7233L9.03707 9.03707L15.7233 5.34286L23.4781 13.0976V2.13715L30.8054 0L38.1328 2.13715V13.0976L45.6128 5.64817L52.5738 9.03707L55.9627 15.9981L48.4827 23.4781H59.0463L61.6109 30.8054L59.0463 38.1328Z" fill="white"/>
<g id="Group_6">
<g id="Group_7">
<path id="Vector_15" d="M30.8053 1.77078L36.423 3.3889V28.0271C36.423 28.424 36.5756 28.8209 36.8199 29.1262L38.0411 30.5917L36.8199 32.0572C36.5756 32.3625 36.423 32.7594 36.423 33.1563V57.8556L30.8053 59.8095L25.1877 57.8556V33.1868C25.1877 32.7899 25.0656 32.4235 24.7908 32.1182L23.5696 30.6222L24.7908 29.1873C25.0656 28.882 25.1877 28.4851 25.1877 28.0882V3.41943L30.8053 1.77078ZM30.8053 0L23.478 2.13715V28.0882L21.3408 30.5917L23.478 33.1868V59.0463L30.8053 61.6109L38.1327 59.0463V33.1258L40.2698 30.5612L38.1327 27.9966V2.13715L30.8053 0Z" fill="#F2C649"/>
</g>
<g id="Group_8">
<path id="Vector_16" d="M15.4179 7.44939L22.2873 14.3188L29.6146 21.6461L32.8509 24.8824C33.1257 25.1572 33.492 25.3403 33.8889 25.3709L35.7818 25.5541L35.965 27.447C35.9955 27.8439 36.1787 28.2102 36.4535 28.485L36.942 28.9735L39.9645 31.996L47.2919 39.3234L53.917 45.9485L51.3219 51.3219L45.9485 53.917L39.3234 47.2919L31.996 39.9645L28.9735 36.942L28.5155 36.484C28.2408 36.2093 27.8744 36.0261 27.4775 35.9955L25.5541 35.8124L25.4014 33.95C25.3709 33.5531 25.1877 33.1867 24.9129 32.8814L24.6992 32.6677L21.6461 29.6146L14.3188 22.2873L7.44939 15.4179L10.2887 10.2887L15.4179 7.44939ZM15.7232 5.34277L9.03698 9.03698L5.34277 15.7232L13.1281 23.478L20.4554 30.8053L23.478 33.8279L23.6917 34.0416L23.9665 37.3084L27.2943 37.6442L27.7523 38.1022L30.7748 41.1247L38.1022 48.452L45.5822 55.9321L52.5737 52.5432L55.9626 45.5516L48.4826 38.0716L41.1552 30.7443L38.1327 27.7217L37.6442 27.2332L37.3389 23.9359L34.0111 23.6306L30.7748 20.3944L23.4474 13.067L15.7232 5.34277Z" fill="#F2C649"/>
</g>
<g id="Group_9">
<path id="Vector_17" d="M30.5917 23.5696L32.0572 24.7908C32.3625 25.035 32.7594 25.1877 33.1563 25.1877H57.8556L59.8095 30.8053L57.8556 36.423H33.1868C32.7899 36.423 32.4235 36.5451 32.1182 36.8199L30.6222 38.0411L29.1873 36.8199C28.882 36.5451 28.4851 36.423 28.0882 36.423H3.41943L1.77078 30.8053L3.41943 25.1877H28.0577C28.4546 25.1877 28.8515 25.035 29.1568 24.7908L30.5917 23.5696ZM30.5917 21.3408L28.0271 23.478H2.13715L0 30.8053L2.13715 38.1327H28.0882L30.5917 40.2698L33.1868 38.1327H59.0463L61.6109 30.8053L59.0463 23.478H33.1258L30.5917 21.3408Z" fill="#F2C649"/>
</g>
<g id="Group_10">
<path id="Vector_18" d="M45.9488 7.6935L51.3222 10.2886L53.9173 15.662L47.2921 22.2872L39.9648 29.6145L36.9422 32.637L36.4843 33.095C36.2095 33.3698 36.0263 33.7361 35.9958 34.133L35.8126 36.0565L33.9502 36.2091C33.5533 36.2397 33.187 36.4228 32.8816 36.6976L32.6679 36.9113L29.6454 39.9339L22.318 47.2612L15.4486 54.1306L10.3195 51.3218L7.48015 46.1927L14.3495 39.3233L21.6769 31.9959L24.6994 28.9734L24.8826 28.7902C25.1574 28.5154 25.3406 28.149 25.3711 27.7521L25.5543 25.8592L27.4472 25.6761C27.8441 25.6455 28.2105 25.4623 28.4852 25.1876L39.3541 14.3187L45.9488 7.6935ZM45.6129 5.64795L38.1329 13.128L27.264 23.9663L23.9667 24.2716L23.6614 27.569L23.4782 27.7827L20.4557 30.8052L13.1283 38.1326L5.37354 45.8873L9.06774 52.5736L15.754 56.2372L23.5087 48.4825L30.8361 41.1551L33.8586 38.1326L34.0723 37.9188L37.3697 37.6441L37.7055 34.2857L38.1635 33.8277L41.186 30.8052L48.5133 23.4778L55.9933 15.9978L52.6045 9.00632L45.6129 5.64795Z" fill="#F2C649"/>
</g>
</g>
</g>
</g>
</svg>
