<svg width="826" height="202" viewBox="0 0 826 202" fill="none" xmlns="http://www.w3.org/2000/svg">
<path d="M349.4 32.6C350.6 33.3 351.5 34.3 352.1 35.4C352.7 36.5 352.6 37.9 351.8 39.5L333.6 65.3C332.8 66.5 332 67.2 331.1 67.4C330.2 67.6 329.1 67.3 327.8 66.5C324.3 63.8 320.4 61.8 316.2 60.4C312 59 307.5 58.2 302.7 58.2C296.8 58.2 291.4 59.3 286.5 61.5C281.6 63.7 277.3 66.8 273.7 70.6C270.1 74.5 267.3 79 265.3 84.2C263.3 89.4 262.3 94.9 262.3 100.8C262.3 106.7 263.3 112.2 265.3 117.3C267.3 122.4 270.1 126.9 273.7 130.7C277.3 134.5 281.6 137.6 286.5 139.8C291.4 142 296.9 143.1 302.7 143.1C307.4 143.1 312 142.4 316.3 140.9C320.6 139.4 324.5 137.4 328 134.7C329.3 133.9 330.4 133.6 331.2 133.7C332.1 133.8 332.9 134.5 333.8 135.6L352.2 162.1C353 163.7 353.1 165 352.5 166.1C351.9 167.2 351 168.1 349.8 168.8C343.1 173.3 335.8 176.8 328 179.3C320.2 181.8 312 183 303.4 183C295.8 183 288.5 182 281.5 180.1C274.5 178.2 268 175.4 261.9 171.8C255.8 168.2 250.3 163.9 245.3 158.9C240.3 153.9 236 148.4 232.4 142.3C228.8 136.2 226.1 129.7 224.1 122.7C222.2 115.7 221.2 108.4 221.2 100.8C221.2 93.2 222.2 85.9 224.1 78.9C226 71.9 228.8 65.3 232.4 59.2C236 53.1 240.3 47.5 245.3 42.5C250.3 37.5 255.8 33.2 261.9 29.6C268 26 274.5 23.3 281.5 21.3C288.5 19.3 295.8 18.3 303.4 18.3C312 18.3 320.1 19.5 327.8 21.9C335.5 24.6 342.7 28.1 349.4 32.6Z" fill="#F2C649"/>
<path d="M424.9 25.2C425 24.8 425.2 24.3 425.6 23.8C426 23.3 426.5 22.8 427.1 22.4C427.7 22 428.3 21.6 428.9 21.4C429.5 21.2 430.2 21 430.7 21H458.2C459.4 21 460.5 21.4 461.3 22.1C462.2 22.9 462.8 23.5 463.2 24.1L465.9 30.2L522.4 175.9C523 177.3 522.9 178.5 522.1 179.4C521.3 180.3 519.9 180.7 518 180.7H487.1C485.4 180.7 484.2 180.4 483.3 179.8C482.4 179.2 481.7 178.2 481.2 176.7C479.8 173 478.4 169.4 477 165.8C475.6 162.2 474.3 158.5 472.9 154.9H415.8C414.4 158.6 413.1 162.2 411.7 165.8C410.3 169.4 408.9 173.1 407.6 176.7C406.7 179.4 404.8 180.7 402.1 180.7H370.4C369 180.7 367.9 180.3 367 179.6C366.1 178.9 365.9 177.8 366.5 176.4L424.9 25.2ZM444.4 71.2C443 74.9 441.7 78.8 440.3 83C438.9 87.2 437.5 91.5 436.2 95.8C434.8 100.1 433.5 104.4 432.1 108.6C430.7 112.8 429.3 116.7 428 120.4H461L444.4 71.2Z" fill="#F2C649"/>
<path d="M557.5 25.7C557.5 24.4 557.9 23.3 558.7 22.4C559.5 21.5 560.7 21 562.3 21H593.9C595 21 596.1 21.4 597.3 22.3C598.5 23.2 599.1 24.3 599.1 25.7V176C599.1 179.2 597.3 180.7 593.8 180.7H562.2C559 180.7 557.5 179.1 557.5 176V25.7Z" fill="#166805"/>
<path d="M604.4 21C605.6 21 606.6 21.4 607.5 22.2C608.4 23 608.8 24.2 608.8 25.8V57.4C608.8 58.5 608.4 59.6 607.6 60.8C606.8 62 605.7 62.6 604.4 62.6H551.9C549 62.6 547.5 60.8 547.5 57.3V25.7C547.5 22.5 549 21 551.9 21H604.4Z" fill="#166805"/>
<path d="M607.4 139.1C607.9 139.1 608.3 139.5 608.6 140.3C608.9 141.1 609.1 142.3 609.1 143.9V175.5C609.1 176.6 608.9 177.7 608.6 178.9C608.3 180.1 607.9 180.7 607.3 180.7H549.2C548 180.7 547.4 178.9 547.4 175.4V143.8C547.4 140.6 548 139.1 549.2 139.1H607.4Z" fill="#166805"/>
<path d="M681.2 21C682.4 21 683.4 21.4 684.3 22.2C685.2 23 685.6 24.2 685.6 25.8V57.4C685.6 58.5 685.2 59.6 684.4 60.8C683.6 62 682.5 62.6 681.2 62.6H628.7C625.8 62.6 624.3 60.8 624.3 57.3V25.7C624.3 22.5 625.8 21 628.7 21H681.2Z" fill="#166805"/>
<path d="M684.1 139.1C684.6 139.1 685 139.5 685.3 140.3C685.6 141.1 685.8 142.3 685.8 143.9V175.5C685.8 176.6 685.6 177.7 685.3 178.9C685 180.1 684.6 180.7 684 180.7H626C624.8 180.7 624.2 178.9 624.2 175.4V143.8C624.2 140.6 624.8 139.1 626 139.1H684.1Z" fill="#166805"/>
<path d="M634.2 25.7C634.2 24.4 634.6 23.3 635.4 22.4C636.2 21.5 637.4 21 639 21H670.6C671.7 21 672.8 21.4 674 22.3C675.2 23.2 675.8 24.3 675.8 25.7V176C675.8 179.2 674 180.7 670.5 180.7H639C635.8 180.7 634.3 179.1 634.3 176V25.7H634.2Z" fill="#166805"/>
<path d="M713.3 25.9C713.3 24.4 713.7 23.2 714.5 22.3C715.3 21.4 716.3 21 717.5 20.9H820.5C822.2 20.9 823.4 21.4 824.2 22.3C825 23.2 825.4 24.5 825.4 26.1V52.7C825.4 53.9 825 55.1 824.1 56.2C823.2 57.3 822 57.9 820.3 57.9H754.9V91.3H803.2C804.6 91.3 805.7 91.7 806.6 92.4C807.5 93.2 808 94.4 808 96V121.7C808 122.9 807.6 124.1 806.8 125.2C806 126.3 804.8 126.9 803.4 126.9H754.9V176.2C754.9 179.3 753.2 180.8 750 180.8H717.2C714.6 180.4 713.3 178.9 713.3 176.3V25.9Z" fill="#166805"/>
<path d="M100.9 16.8L117.1 21.5V92.4C117.1 93.5 117.5 94.7 118.2 95.5L121.7 99.7L118.2 103.9C117.5 104.8 117.1 105.9 117.1 107V178.2L100.9 183.8L84.7 178.2V107.2C84.7 106.1 84.3 105 83.6 104.1L80 99.9L83.5 95.8C84.2 94.9 84.7 93.8 84.7 92.6V21.5L100.9 16.8ZM100.9 11.7L79.8 17.8V92.6L73.7 99.8L79.8 107.3V181.8L100.9 189.2L122 181.8V107.2L128.1 99.8L122 92.4V17.9L100.9 11.7Z" fill="#F2C649"/>
<path d="M56.6 33.2L106.8 83.4C107.6 84.2 108.7 84.7 109.8 84.8L115.3 85.3L115.8 90.8C115.9 91.9 116.4 93 117.2 93.8L167.5 144.1L160 159.6L144.5 167.1L94.3 116.9C93.5 116.1 92.4 115.6 91.3 115.5L85.7 114.9L85.3 109.5C85.2 108.3 84.7 107.3 83.9 106.4L33.6 56.1L41.7 41.3L56.6 33.2ZM57.4 27.1L38.2 37.7L27.6 57L80.5 109.9L81.3 119.4L90.9 120.4L143.6 173.1L163.7 163.4L173.4 143.3L120.6 90.5L119.7 81L110.2 80.1L57.4 27.1Z" fill="#F2C649"/>
<path d="M100.3 79.6L104.5 83.1C105.4 83.8 106.5 84.2 107.6 84.2H178.8L184.4 100.4L178.8 116.6H107.8C106.7 116.6 105.6 117 104.7 117.7L100.4 121.2L96.3 117.7C95.4 117 94.2999 116.5 93.1 116.5H22L17.3 100.3L22 84.2H92.9C94 84.2 95.2 83.8 96 83.1L100.3 79.6ZM100.3 73.2L92.9 79.3H18.3L12.2 100.4L18.3 121.5H93L100.2 127.6L107.7 121.5H182.2L189.6 100.4L182.2 79.3H107.6L100.3 73.2Z" fill="#F2C649"/>
<path d="M144.5 33.9L160 41.4L167.5 56.9L117.3 107.1C116.5 107.9 116 109 115.9 110.1L115.3 115.7L109.9 116.1C108.7 116.2 107.7 116.7 106.8 117.5L56.5 167.8L41.7 159.7L33.6 144.9L83.8 94.7C84.6 93.9 85.1 92.8 85.2 91.7L85.7 86.2L91.2 85.7C92.3 85.6 93.4 85.1 94.2 84.3L144.5 33.9ZM143.5 28L90.7 80.8L81.2 81.7L80.3 91.2L27.5 144L38.1 163.3L57.4 173.9L110.3 121L119.8 120.2L120.8 110.6L173.5 57.9L163.8 37.8L143.5 28Z" fill="#F2C649"/>
<path d="M193.4 124.9H158.9L183.3 149.3L172.2 172.2L149.4 183.3L124.9 158.8V193.4L100.9 201.8L76.9 193.4V158.8L51.5 184.3L29.6 172.2L17.5 150.3L43 124.9H7L0 100.9L7 76.9H43L17.5 51.5L29.6 29.6L51.5 17.5L76.9 42.9V7L100.9 0L124.9 7V42.9L149.4 18.5L172.2 29.6L183.3 52.4L158.8 76.9H193.4L201.8 100.9L193.4 124.9Z" fill="#166805"/>
<path d="M100.9 5.8L119.3 11.1V91.8C119.3 93.1 119.8 94.4 120.6 95.4L124.6 100.2L120.6 105C119.8 106 119.3 107.3 119.3 108.6V189.5L100.9 195.9L82.5 189.5V108.7C82.5 107.4 82.1 106.2 81.2 105.2L77.2 100.3L81.2 95.6C82.1 94.6 82.5 93.3 82.5 92V11.2L100.9 5.8ZM100.9 0L76.9 7V92L69.9 100.2L76.9 108.7V193.4L100.9 201.8L124.9 193.4V108.5L131.9 100.1L124.9 91.7V7L100.9 0Z" fill="#F2C649"/>
<path d="M50.5 24.4L73 46.9L97 70.9L107.6 81.5C108.5 82.4 109.7 83 111 83.1L117.2 83.7L117.8 89.9C117.9 91.2 118.5 92.4 119.4 93.3L121 94.9L130.9 104.8L154.9 128.8L176.6 150.5L168.1 168.1L150.5 176.6L128.8 154.9L104.8 130.9L94.9 121L93.4 119.5C92.5 118.6 91.3 118 90 117.9L83.7 117.3L83.2 111.2C83.1 109.9 82.5 108.7 81.6 107.7L80.9 107L70.9 97L46.9 73L24.4 50.5L33.7 33.7L50.5 24.4ZM51.5 17.5L29.6 29.6L17.5 51.5L43 76.9L67 100.9L76.9 110.8L77.6 111.5L78.5 122.2L89.4 123.3L90.9 124.8L100.8 134.7L124.8 158.7L149.3 183.2L172.2 172.1L183.3 149.2L158.8 124.7L134.8 100.7L124.9 90.8L123.3 89.2L122.3 78.4L111.4 77.4L100.8 66.8L76.8 42.8L51.5 17.5Z" fill="#F2C649"/>
<path d="M100.2 77.2L105 81.2C106 82 107.3 82.5 108.6 82.5H189.5L195.9 100.9L189.5 119.3H108.7C107.4 119.3 106.2 119.7 105.2 120.6L100.3 124.6L95.6 120.6C94.6 119.7 93.3 119.3 92 119.3H11.2L5.8 100.9L11.2 82.5H91.9C93.2 82.5 94.5 82 95.5 81.2L100.2 77.2ZM100.2 69.9L91.8 76.9H7L0 100.9L7 124.9H92L100.2 131.9L108.7 124.9H193.4L201.8 100.9L193.4 76.9H108.5L100.2 69.9Z" fill="#F2C649"/>
<path d="M150.5 25.2L168.1 33.7L176.6 51.3L154.9 73L130.9 97L121 106.9L119.5 108.4C118.6 109.3 118 110.5 117.9 111.8L117.3 118.1L111.2 118.6C109.9 118.7 108.7 119.3 107.7 120.2L107 120.9L97.1 130.8L73.1 154.8L50.6 177.3L33.8 168.1L24.5 151.3L47 128.8L71 104.8L80.9 94.9L81.5 94.3C82.4 93.4 83 92.2 83.1 90.9L83.7 84.7L89.9 84.1C91.2 84 92.4 83.4 93.3 82.5L128.9 46.9L150.5 25.2ZM149.4 18.5L124.9 43L89.3 78.5L78.5 79.5L77.5 90.3L76.9 91L67 100.9L43 124.9L17.6 150.3L29.7 172.2L51.6 184.2L77 158.8L101 134.8L110.9 124.9L111.6 124.2L122.4 123.3L123.5 112.3L125 110.8L134.9 100.9L158.9 76.9L183.4 52.4L172.3 29.5L149.4 18.5Z" fill="#F2C649"/>
</svg>
