<svg width="62" height="62" viewBox="0 0 62 62" fill="none" xmlns="http://www.w3.org/2000/svg">
<path d="M30.8053 1.77078L36.423 3.3889V28.0271C36.423 28.424 36.5756 28.8209 36.8199 29.1262L38.0411 30.5917L36.8199 32.0572C36.5756 32.3625 36.423 32.7594 36.423 33.1563V57.8556L30.8053 59.8095L25.1877 57.8556V33.1868C25.1877 32.7899 25.0656 32.4235 24.7908 32.1182L23.5696 30.6222L24.7908 29.1873C25.0656 28.882 25.1877 28.4851 25.1877 28.0882V3.41943L30.8053 1.77078ZM30.8053 0L23.478 2.13715V28.0882L21.3408 30.5917L23.478 33.1868V59.0463L30.8053 61.6109L38.1327 59.0463V33.1258L40.2698 30.5612L38.1327 27.9966V2.13715L30.8053 0Z" fill="#F2C649"/>
<path d="M15.4179 7.44948L22.2873 14.3189L29.6146 21.6462L32.8509 24.8825C33.1257 25.1573 33.492 25.3404 33.8889 25.371L35.7818 25.5542L35.965 27.4471C35.9955 27.844 36.1787 28.2103 36.4535 28.4851L36.942 28.9736L39.9645 31.9961L47.2919 39.3235L53.917 45.9486L51.3219 51.322L45.9485 53.9171L39.3234 47.292L31.996 39.9646L28.9735 36.9421L28.5155 36.4841C28.2408 36.2094 27.8744 36.0262 27.4775 35.9956L25.5541 35.8125L25.4014 33.9501C25.3709 33.5532 25.1877 33.1868 24.9129 32.8815L24.6992 32.6678L21.6461 29.6147L14.3188 22.2874L7.44939 15.418L10.2887 10.2888L15.4179 7.44948ZM15.7232 5.34286L9.03698 9.03707L5.34277 15.7233L13.1281 23.4781L20.4554 30.8054L23.478 33.828L23.6917 34.0417L23.9665 37.3085L27.2943 37.6443L27.7523 38.1023L30.7748 41.1248L38.1022 48.4521L45.5822 55.9322L52.5737 52.5433L55.9626 45.5517L48.4826 38.0717L41.1552 30.7444L38.1327 27.7218L37.6442 27.2333L37.3389 23.936L34.0111 23.6307L30.7748 20.3945L23.4474 13.0671L15.7232 5.34286Z" fill="#F2C649"/>
<path d="M30.5917 23.5696L32.0572 24.7909C32.3625 25.0351 32.7594 25.1878 33.1563 25.1878H57.8556L59.8095 30.8054L57.8556 36.4231H33.1868C32.7899 36.4231 32.4235 36.5452 32.1182 36.8199L30.6222 38.0412L29.1873 36.8199C28.882 36.5452 28.4851 36.4231 28.0882 36.4231H3.41943L1.77078 30.8054L3.41943 25.1878H28.0577C28.4546 25.1878 28.8515 25.0351 29.1568 24.7909L30.5917 23.5696ZM30.5917 21.3409L28.0271 23.4781H2.13715L0 30.8054L2.13715 38.1328H28.0882L30.5917 40.2699L33.1868 38.1328H59.0463L61.6109 30.8054L59.0463 23.4781H33.1258L30.5917 21.3409Z" fill="#F2C649"/>
<path d="M45.9488 7.69372L51.3222 10.2888L53.9173 15.6622L47.2921 22.2874L39.9648 29.6147L36.9422 32.6373L36.4843 33.0952C36.2095 33.37 36.0263 33.7364 35.9958 34.1333L35.8126 36.0567L33.9502 36.2093C33.5533 36.2399 33.187 36.4231 32.8816 36.6978L32.6679 36.9115L29.6454 39.9341L22.318 47.2614L15.4486 54.1308L10.3195 51.322L7.48015 46.1929L14.3495 39.3235L21.6769 31.9961L24.6994 28.9736L24.8826 28.7904C25.1574 28.5156 25.3406 28.1493 25.3711 27.7524L25.5543 25.8595L27.4472 25.6763C27.8441 25.6457 28.2105 25.4626 28.4852 25.1878L39.3541 14.3189L45.9488 7.69372ZM45.6129 5.64816L38.1329 13.1282L27.264 23.9666L23.9667 24.2719L23.6614 27.5692L23.4782 27.7829L20.4557 30.8054L13.1283 38.1328L5.37354 45.8876L9.06774 52.5738L15.754 56.2374L23.5087 48.4827L30.8361 41.1553L33.8586 38.1328L34.0723 37.9191L37.3697 37.6443L37.7055 34.2859L38.1635 33.828L41.186 30.8054L48.5133 23.4781L55.9933 15.9981L52.6045 9.00653L45.6129 5.64816Z" fill="#F2C649"/>
</svg>
