<svg width="60" height="62" viewBox="0 0 60 62" fill="none" xmlns="http://www.w3.org/2000/svg">
<g id="Group">
<path id="Vector" d="M18.1777 46.1646C31.0704 46.1646 43.9134 46.1646 56.8808 46.1646C56.9057 46.513 56.9803 46.8615 56.9803 47.2099C56.9803 51.1176 56.9803 55.0003 56.9803 58.908C56.9803 60.7747 56.4079 61.372 54.5412 61.372C43.2165 61.372 31.8918 61.372 20.5919 61.372C18.7501 61.372 18.1279 60.7498 18.1279 58.908C18.1279 55.0003 18.1279 51.1176 18.1279 47.2099C18.103 46.8615 18.1528 46.5379 18.1777 46.1646ZM37.5666 49.7984C33.6589 49.7984 29.7762 49.8482 25.8685 49.7735C24.6987 49.7486 24.3254 50.1718 24.3751 51.2918C24.4498 52.9096 24.4498 54.5274 24.3751 56.1452C24.3005 57.3648 24.7983 57.763 25.9681 57.6884C26.8641 57.6137 27.785 57.6635 28.7059 57.6635C35.4261 57.6635 42.1462 57.6635 48.8415 57.6635C50.6584 57.6635 50.6584 57.6635 50.6584 55.7968C50.6584 54.2536 50.6086 52.7354 50.6833 51.1922C50.7331 50.0722 50.2851 49.7735 49.2397 49.7984C45.357 49.8233 41.4493 49.7984 37.5666 49.7984Z" fill="#166805"/>
<path id="Vector_2" d="M9.49121 17.5167C10.885 13.4846 12.2291 9.577 13.598 5.64446C13.9215 5.64446 14.1953 5.61958 14.4691 5.64446C16.9332 5.94314 19.3474 5.84358 21.7368 5.17156C24.9227 4.27554 27.7352 5.07201 30.0997 7.33695C31.618 8.78054 33.0615 10.3237 34.4305 11.7424C32.6882 12.4393 31.0206 13.3353 29.2286 13.7335C27.6108 14.1069 26.1174 13.2855 24.8729 12.1904C24.5991 11.9415 24.4249 11.5682 24.1013 11.3939C23.8275 11.2446 23.4542 11.2944 23.1306 11.2446C23.1058 11.593 22.9564 12.0908 23.1058 12.2153C24.2258 13.1113 25.296 14.1318 26.5654 14.6793C28.3823 15.4509 30.3486 15.874 32.2402 16.4465C34.1318 17.019 35.0527 18.4377 34.6047 20.0555C34.1318 21.7231 32.5389 22.4946 30.6224 21.9222C28.8054 21.3746 27.0134 20.7026 25.1467 20.2795C23.6782 19.931 22.0853 19.5577 20.6168 19.7568C17.2567 20.2048 14.1953 19.5328 11.1837 18.1888C10.7357 17.9896 10.1881 17.7905 9.49121 17.5167Z" fill="#166805"/>
<path id="Vector_3" d="M36.2472 18.8856C42.1709 17.7904 47.9204 22.9177 47.771 29.14C47.6964 31.9276 46.6759 34.2921 44.7096 36.2584C43.2163 37.7269 41.5487 38.7225 39.3086 38.4985C37.9895 38.374 36.6455 38.3989 35.3263 38.4985C33.9574 38.598 32.8125 38.1251 31.7422 37.3784C27.3368 34.3419 26.0176 28.3436 28.7057 23.8137C29.0044 23.3159 29.2035 22.9923 29.9502 23.1666C33.7583 24.1372 35.6997 22.843 36.2472 18.8856ZM33.8827 31.5294C33.8827 32.7988 34.6792 33.869 35.8739 34.4166C36.4214 34.6655 36.9441 34.7899 36.9192 35.5615C36.9192 35.7606 37.3175 36.134 37.5415 36.134C37.7655 36.134 38.1637 35.7606 38.1637 35.5615C38.1388 34.8895 38.5122 34.6655 39.0597 34.4415C40.6029 33.7944 41.3496 32.5997 41.2002 31.1561C41.0758 29.8618 40.0055 28.7418 38.5371 28.3933C37.9646 28.2689 37.3672 28.2689 36.8197 28.1196C35.9485 27.8956 35.2765 27.3729 35.2765 26.4022C35.2516 25.4315 35.8988 24.9088 36.7699 24.6599C38.2135 24.2119 39.3086 24.8341 39.8811 26.2777C40.0055 26.5764 40.4038 26.7755 40.6527 27.0244C40.8269 26.6511 41.2002 26.2777 41.1753 25.9542C41.026 24.6848 40.1798 23.9381 39.0846 23.3906C38.7362 23.2163 38.5371 22.7434 38.2384 22.4199C38.0144 22.171 37.7904 21.947 37.5415 21.6981C37.3175 21.9221 36.9192 22.1212 36.9192 22.3452C36.9192 23.0172 36.5459 23.2163 35.9983 23.4652C34.505 24.0875 33.7832 25.2573 33.8827 26.6511C34.0072 27.9951 34.953 29.0902 36.4712 29.4885C37.0188 29.6378 37.641 29.588 38.1886 29.7374C39.0846 29.9863 39.8313 30.4841 39.8313 31.5045C39.8313 32.4503 39.1842 32.973 38.313 33.2468C36.8943 33.6699 35.7992 33.0477 35.2268 31.5792C35.1023 31.2805 34.7041 31.0067 34.4054 30.957C34.2312 30.9072 33.9823 31.405 33.8827 31.5294Z" fill="#166805"/>
<path id="Vector_4" d="M37.5914 39.8921C44.4858 39.8921 51.3553 39.8921 58.2497 39.8921C59.7928 39.8921 59.967 40.0663 59.9919 41.5846C60.0168 45.094 60.1662 44.6709 56.9305 44.6709C43.6893 44.6709 30.4481 44.6709 17.2318 44.6709C15.1411 44.6709 15.1162 44.646 15.1162 42.605C15.1162 39.8921 15.1162 39.8921 17.8292 39.8921C24.4 39.8921 30.9957 39.8921 37.5914 39.8921Z" fill="#166805"/>
<path id="Vector_5" d="M30.9951 14.5795C33.1605 13.4843 35.3508 13.0363 37.5908 13.111C43.7634 13.2603 48.5422 15.9982 51.4792 21.449C54.3912 26.85 54.0677 32.2759 50.9316 37.5276C50.5085 38.2493 49.9858 38.548 49.1395 38.4982C47.6711 38.4236 46.2026 38.4734 44.7092 38.4734C45.1572 37.9258 45.5306 37.4529 45.9537 37.0049C49.2889 33.5452 50.16 28.3185 48.0942 23.9628C46.0284 19.6071 41.4487 16.944 36.6699 17.3422C36.2966 17.3671 35.7241 17.3422 35.5748 17.0933C34.6788 15.6995 33.2849 15.2515 31.8165 14.8781C31.5676 14.8284 31.3436 14.7288 30.9951 14.5795Z" fill="#166805"/>
<path id="Vector_6" d="M12.8759 3.22999C12.7017 3.87712 12.6021 4.25046 12.4777 4.59891C10.9594 9.05413 9.41627 13.5093 7.84824 17.9646C7.27578 19.5824 6.57887 19.881 5.01084 19.2588C3.79125 18.761 2.57167 18.2383 1.35208 17.7157C0.107611 17.1681 -0.265731 16.521 0.18228 15.2516C1.77521 10.5973 3.39302 5.94294 5.03573 1.3135C5.48374 0.0690258 6.23042 -0.279427 7.4749 0.218363C8.86871 0.765931 10.2625 1.28861 11.5817 1.96063C12.1292 2.23441 12.5026 2.85665 12.8759 3.22999ZM5.5833 14.48C5.13528 14.1316 4.8615 13.9574 4.61261 13.7582C4.26415 14.3058 3.89081 14.8285 3.64192 15.4009C3.59214 15.5254 4.04015 15.8738 4.26415 16.0978C4.6375 15.6001 5.03573 15.1023 5.5833 14.48Z" fill="#166805"/>
<path id="Vector_7" d="M27.7595 22.544C24.6732 28.7912 25.3203 32.4749 30.5471 38.4732C28.6306 38.4732 26.8883 38.4981 25.1461 38.4483C24.8723 38.4483 24.5238 38.0501 24.3496 37.7514C21.2135 32.7735 20.8651 27.5965 23.2047 22.2204C23.5282 21.4986 23.9016 21.2995 24.6483 21.5733C25.6439 21.8968 26.6643 22.1955 27.7595 22.544Z" fill="#166805"/>
<path id="Vector_8" d="M49.2394 56.2445C41.4241 56.2445 33.6835 56.2445 25.8682 56.2445C25.8682 54.5769 25.8682 52.984 25.8682 51.2915C33.6337 51.2915 41.3992 51.2915 49.2394 51.2915C49.2394 52.9342 49.2394 54.5769 49.2394 56.2445Z" fill="#166805"/>
</g>
</svg>
