<svg width="16" height="18" viewBox="0 0 16 18" fill="none" xmlns="http://www.w3.org/2000/svg">
<g id="Group 546007">
<path id="Vector" d="M1.12354 6.54102C5.39785 6.54102 9.62549 6.54102 13.8865 6.54102C13.8198 7.38788 13.7531 8.21473 13.6864 9.04159C13.5197 11.0821 13.3464 13.1159 13.1796 15.1563C13.1463 15.5564 13.133 15.9565 13.053 16.3499C12.9196 17.0501 12.3461 17.5302 11.6393 17.5369C8.87866 17.5436 6.12469 17.5502 3.36405 17.5369C2.5772 17.5369 1.97707 16.9367 1.91038 16.1166C1.697 13.6026 1.49695 11.0887 1.29024 8.57482C1.24356 7.908 1.18355 7.24118 1.12354 6.54102ZM4.0042 11.4955C4.0042 12.6291 4.0042 13.7627 4.0042 14.8963C4.0042 15.123 4.0242 15.343 4.26426 15.4631C4.65101 15.6631 5.00443 15.3964 5.00443 14.8963C5.00443 12.6491 5.00443 10.4086 5.00443 8.16139C5.00443 8.06137 5.02443 7.928 4.97109 7.86799C4.84439 7.73462 4.67769 7.54791 4.52432 7.55458C4.35761 7.56125 4.1709 7.72796 4.04421 7.86799C3.97753 7.94801 4.0042 8.12138 4.0042 8.25474C4.0042 9.34166 4.0042 10.4219 4.0042 11.4955ZM7.01156 11.5288C7.01156 12.6157 7.01156 13.7093 7.01156 14.7963C7.01156 14.9163 7.01156 15.043 7.03823 15.163C7.08491 15.4031 7.26495 15.5164 7.49834 15.5231C7.74506 15.5298 7.93177 15.4231 7.98512 15.163C8.01179 15.0363 8.01179 14.8963 8.01179 14.7629C8.01179 12.6091 8.01179 10.4486 8.01179 8.29475C8.01179 8.16139 8.01179 8.02802 7.98512 7.89466C7.93844 7.64794 7.7584 7.54125 7.52501 7.53458C7.27829 7.52791 7.09158 7.6346 7.03823 7.89466C7.01156 8.01469 7.01156 8.13472 7.01156 8.26141C7.01156 9.355 7.01156 10.4419 7.01156 11.5288ZM10.0122 11.4955C10.0122 12.5957 10.0122 13.696 10.0122 14.7963C10.0122 14.9163 10.0123 15.043 10.0323 15.163C10.0789 15.4031 10.259 15.5164 10.4857 15.5231C10.7324 15.5298 10.9191 15.4231 10.9791 15.163C11.0058 15.043 11.0058 14.9229 11.0058 14.7963C11.0058 12.6224 11.0058 10.4419 11.0058 8.26808C11.0058 8.14805 11.0058 8.02136 10.9791 7.90133C10.9191 7.65461 10.7324 7.4879 10.499 7.54125C10.3257 7.58126 10.1656 7.75463 10.0456 7.90133C9.98558 7.98135 10.0122 8.13472 10.0122 8.26141C10.0122 9.34166 10.0122 10.4219 10.0122 11.4955Z" fill="#DA5757"/>
<path id="Vector_2" d="M10.5455 2.46054C11.5057 2.46054 12.4393 2.46054 13.3728 2.46054C14.3997 2.46054 15.0065 3.06068 15.0199 4.08758C15.0266 4.35431 15.0266 4.62104 15.0199 4.88777C15.0065 5.27452 14.8265 5.46123 14.4398 5.46123C9.84536 5.46123 5.25763 5.46123 0.663242 5.46123C0.129786 5.46123 0.00308996 5.3212 0.00308996 4.78108C0.00308996 4.46767 -0.0102464 4.15426 0.0164264 3.84753C0.0831084 3.05401 0.696583 2.47388 1.49677 2.46054C2.39698 2.4472 3.29718 2.4472 4.19739 2.46054C4.41077 2.46054 4.51746 2.40719 4.57081 2.19381C4.63749 1.93375 4.73085 1.68703 4.8242 1.43364C5.05759 0.833499 5.57771 0.466747 6.23119 0.460079C7.08472 0.453411 7.94492 0.453411 8.79845 0.460079C9.45193 0.466747 9.96539 0.833499 10.1988 1.45364C10.3188 1.77372 10.4255 2.10046 10.5455 2.46054ZM9.47194 2.4472C9.42526 2.29384 9.37858 2.16047 9.33857 2.02711C9.1652 1.52032 9.09185 1.46031 8.55173 1.46031C7.88491 1.46031 7.21809 1.46031 6.55793 1.46031C5.86444 1.46031 5.59771 1.74037 5.60438 2.4472C6.87801 2.4472 8.15163 2.4472 9.47194 2.4472Z" fill="#DA5757"/>
</g>
</svg>
