<svg width="24" height="25" viewBox="0 0 24 25" fill="none" xmlns="http://www.w3.org/2000/svg">
<g id="Group 546003">
<path id="Vector" d="M12.0107 0.500016C18.6321 0.51073 24 5.87858 24 12.5C24 19.1429 18.6107 24.5107 11.9572 24.5C5.35716 24.4893 -0.0106983 19.1 1.60115e-05 12.4786C0.0107303 5.85716 5.40001 0.489302 12.0107 0.500016ZM22.2964 12.5322C22.3071 6.85358 17.7107 2.23573 12.0429 2.22501C6.37501 2.2143 1.73573 6.82144 1.72501 12.4893C1.7143 18.1571 6.33216 22.7857 11.9893 22.7857C17.6893 22.7964 22.2857 18.2107 22.2964 12.5322Z" fill="#FB6D6D"/>
<path id="Vector_2" d="M12.0001 11.3109C13.0394 10.2609 14.0037 9.28595 14.968 8.31095C15.3108 7.96809 15.7072 7.87166 16.1251 8.13952C16.4894 8.36452 16.5965 8.7288 16.468 9.12523C16.4037 9.3288 16.2215 9.51095 16.0608 9.67166C15.1501 10.6252 14.2287 11.5681 13.3072 12.5109C13.9715 13.1967 14.6787 13.9252 15.3858 14.6538C15.6644 14.9324 15.9537 15.2002 16.2215 15.4788C16.6287 15.8967 16.6501 16.4002 16.2858 16.7645C15.9322 17.1288 15.4072 17.1181 15.0001 16.7217C14.068 15.8109 13.1572 14.8788 12.2358 13.9574C12.1715 13.8931 12.1072 13.8395 11.8715 13.6145C11.6465 13.9038 11.4537 14.2252 11.1965 14.4931C10.5108 15.2217 9.80368 15.9181 9.09653 16.6252C8.63582 17.0859 8.11082 17.1395 7.73582 16.7538C7.37154 16.3788 7.40368 15.8967 7.86439 15.4359C8.83939 14.4931 9.82511 13.5717 10.8108 12.6395C10.843 12.5324 10.8644 12.4252 10.8965 12.3288C10.693 12.2217 10.4465 12.1467 10.2858 11.9967C9.48225 11.2145 8.68939 10.4217 7.89653 9.61809C7.45725 9.1788 7.42511 8.6538 7.78939 8.28952C8.15368 7.92523 8.66796 7.96809 9.11796 8.40738C10.0715 9.36095 11.0144 10.3145 12.0001 11.3109Z" fill="#FB6D6D"/>
</g>
</svg>
