<svg width="50" height="60" viewBox="0 0 50 60" fill="none" xmlns="http://www.w3.org/2000/svg">
<g id="Group 546009">
<path id="Vector" d="M45.3013 0.0626141C45.0352 0.0156535 44.7534 0 44.4717 0H45.0665C45.1448 0.0156535 45.223 0.0469606 45.3013 0.0626141Z" fill="#166805"/>
<path id="Vector_2" d="M5.10319 0C4.88404 0 4.68055 0.0156535 4.47705 0.0313071C4.4927 0.0156535 4.50836 0 4.52401 0H5.10319Z" fill="#166805"/>
<path id="Vector_3" d="M21.007 59.9999H5.10305C2.28541 59.9999 0 57.7145 0 54.8969V53.8794C0 54.2394 0 54.5995 0.0313071 54.9595C0.219149 57.8867 2.44195 59.9999 5.36916 59.9999C10.5818 59.9843 15.7944 59.9999 21.007 59.9999Z" fill="#166805"/>
<path id="Vector_4" d="M24.0283 19.1284H25.5467C25.4684 19.4884 25.4998 19.9894 25.3119 20.0833C25.0301 20.2398 24.5292 20.2398 24.2475 20.0833C24.0753 19.9894 24.1066 19.4884 24.0283 19.1284Z" fill="#166805"/>
<path id="Vector_5" d="M26.7833 14.6828C26.8772 15.8255 26.4389 16.7021 25.4057 17.156C25.0614 17.3126 24.5448 17.3282 24.2004 17.1717C22.8073 16.5299 22.275 14.5732 23.0577 13.2427C23.496 12.4913 24.3883 12.1 25.2805 12.3035C26.1102 12.4913 26.7363 13.2427 26.7989 14.1036C26.7989 14.3071 26.7833 14.4949 26.7833 14.6828Z" fill="#166805"/>
<path id="Vector_6" d="M30.3364 21.0229C29.8198 20.021 28.9276 19.5514 27.8788 19.3166C27.1587 19.1601 26.9396 18.4087 27.4561 17.8452C28.6458 16.546 28.7554 14.9963 28.4267 13.3996C28.0353 11.4742 26.2665 10.3159 24.2628 10.5507C22.4783 10.7542 21.1008 12.3508 21.0225 14.2136C20.9756 15.6067 21.1791 16.8747 22.1965 17.9391C22.6348 18.3931 22.3531 19.1444 21.7426 19.3166C20.2712 19.7236 20.0833 19.8489 19.2067 21.0072C17.2657 18.9253 16.6709 14.4953 19.7076 11.4429C22.5409 8.60962 27.1118 8.64093 29.9137 11.4899C32.9192 14.558 32.2774 18.9409 30.3364 21.0229Z" fill="#166805"/>
<path id="Vector_7" d="M49.5747 5.7605C49.5747 5.46308 49.5747 5.16566 49.5434 4.8839C49.3086 2.61414 48.1033 1.09575 46.0057 0.281763C45.7709 0.187842 45.5361 0.125228 45.3013 0.0626141C45.0352 0.0156535 44.7534 0 44.4717 0H5.10305C4.8839 0 4.6804 0.0156535 4.47691 0.0313071C1.95669 0.344378 0 2.50456 0 5.10305V53.8638C0 54.2238 0 54.5839 0.0313071 54.9439C0.219149 57.8711 2.44195 59.9843 5.36916 59.9843C10.5818 59.9843 15.7944 59.9843 21.007 59.9843C28.7399 59.9843 36.4727 59.9843 44.2056 59.9687C44.816 59.9687 45.4578 59.8591 46.037 59.6713C48.3068 58.9042 49.5747 56.9319 49.5747 54.2395C49.5747 46.1623 49.5747 38.0694 49.5747 29.9922C49.5747 21.9149 49.5747 13.8377 49.5747 5.7605ZM29.2095 3.52204C29.6947 3.52204 30.0861 3.92904 30.0704 4.4143C30.0548 4.8839 29.6791 5.25959 29.2095 5.25959C28.7242 5.25959 28.3172 4.83694 28.3329 4.36733C28.3485 3.91338 28.7399 3.52204 29.2095 3.52204ZM20.5531 3.52204C21.461 3.52204 22.3845 3.52204 23.3081 3.52204C24.216 3.52204 25.1396 3.52204 26.0631 3.52204C26.7206 3.52204 27.1432 3.89773 27.1276 4.42995C27.1119 4.94651 26.7049 5.27524 26.0631 5.27524C24.2317 5.27524 22.4002 5.27524 20.5687 5.27524C19.8956 5.27524 19.5043 4.93086 19.5199 4.36733C19.5199 3.83511 19.8956 3.52204 20.5531 3.52204ZM23.8716 7.62327C28.8181 7.26324 32.982 10.5192 33.6707 15.2935C34.2656 19.4104 31.7767 23.5586 27.8633 24.9517C27.2684 25.1552 26.7675 24.983 26.5953 24.5134C26.4075 24.0125 26.6423 23.5899 27.2215 23.3238C27.6911 23.1203 28.1294 22.8698 28.5833 22.6663C28.8964 22.5254 28.9277 22.2906 28.8181 21.9932C28.5207 21.1323 27.3624 20.7879 26.6736 21.3671C25.5622 22.2906 23.9186 22.3219 22.8698 21.3201C22.3845 20.8505 21.9932 21.0853 21.5549 21.2262C21.0696 21.3671 20.7879 21.7114 20.7253 22.181C20.7096 22.3376 20.8661 22.6037 21.007 22.6663C21.7271 22.995 22.4628 23.3238 23.2142 23.5742C23.9342 23.809 24.2786 24.1377 24.169 24.67C24.0438 25.2335 23.5586 25.4683 22.8228 25.2961C18.7686 24.3725 15.857 20.7253 15.857 16.5614C15.8414 11.9436 19.4417 7.93634 23.8716 7.62327ZM11.8028 29.006C11.8497 28.5833 12.1002 28.2859 12.5541 28.2233C12.742 28.192 12.9455 28.2077 13.1333 28.2077H36.4414C36.6293 28.2077 36.8327 28.2077 37.0206 28.2233C37.4745 28.2859 37.725 28.5677 37.7563 29.006C37.7876 29.4443 37.5841 29.773 37.1458 29.8826C36.911 29.9452 36.6449 29.9609 36.3945 29.9609C28.646 29.9609 20.8975 29.9609 13.149 29.9609C12.8985 29.9609 12.6324 29.9609 12.3976 29.8826C11.9906 29.773 11.7715 29.4443 11.8028 29.006ZM29.5226 56.4779C27.9572 56.4779 26.4075 56.4779 24.8421 56.4779C23.3238 56.4779 21.8054 56.4779 20.2713 56.4779C19.5356 56.4779 19.1443 56.1649 19.1443 55.5857C19.1443 55.0222 19.5513 54.7247 20.287 54.7247C23.3707 54.7247 26.4545 54.7247 29.5382 54.7247C30.2739 54.7247 30.6653 55.0378 30.6653 55.617C30.6653 56.1805 30.2739 56.4779 29.5226 56.4779ZM44.8787 49.7156C44.8474 51.0775 44.0177 51.8914 42.6559 51.8914C30.7435 51.8914 18.8312 51.8914 6.93451 51.8914C5.54135 51.8914 4.71171 51.0618 4.69606 49.6686C4.6804 44.7847 4.6804 39.9008 4.69606 35.0326C4.69606 33.6081 5.52569 32.8098 6.98147 32.8098C12.9142 32.8098 18.8468 32.8098 24.7952 32.8098C30.7122 32.8098 36.6292 32.8098 42.5463 32.8098C44.096 32.8098 44.8943 33.5925 44.8943 35.1422C44.8943 37.4902 44.8943 39.8226 44.8943 42.1706C44.8943 42.3898 44.8943 42.6089 44.8317 42.8124C44.7065 43.2194 44.4091 43.4072 43.9864 43.3916C43.5638 43.3759 43.282 43.1724 43.1881 42.7498C43.1411 42.5306 43.1411 42.2802 43.1411 42.0454C43.1411 39.7756 43.1255 37.5215 43.1411 35.2517C43.1411 34.7195 42.9846 34.5473 42.4367 34.5473C30.6653 34.563 18.8938 34.563 7.12235 34.5473C6.62144 34.5473 6.4336 34.6882 6.44925 35.2048C6.46491 39.9635 6.46491 44.7378 6.44925 49.4965C6.44925 49.9817 6.62144 50.1382 7.1067 50.1382C18.8938 50.1226 30.6966 50.1226 42.4837 50.1382C43.0002 50.1382 43.1724 49.9504 43.1568 49.4495C43.1255 48.5729 43.1411 47.6963 43.1568 46.8197C43.1568 46.1309 43.5011 45.7396 44.0334 45.7396C44.5656 45.7396 44.8943 46.1466 44.8943 46.8354C44.8943 47.8059 44.91 48.7607 44.8787 49.7156ZM40.9809 47.0389C40.9653 47.7902 40.2922 48.2598 39.7287 47.8841C39.4782 47.712 39.259 47.3206 39.2434 47.0389C39.2121 43.9238 39.2121 40.8088 39.2277 37.6937C39.2277 37.0676 39.6191 36.6919 40.1356 36.7075C40.6366 36.7232 40.9653 37.0989 40.9653 37.7093C40.9809 39.2747 40.9653 40.8244 40.9653 42.3898C40.9966 43.9081 40.9966 45.4735 40.9809 47.0389ZM36.2536 37.7407C36.2536 37.0676 36.5979 36.6606 37.1458 36.6762C37.6624 36.6919 38.0068 37.0832 38.0068 37.725C38.0068 40.8088 38.0068 43.8768 38.0068 46.9606C38.0068 47.5867 37.6467 47.9937 37.1302 47.9937C36.5979 47.9937 36.2536 47.6024 36.2536 46.9136C36.2536 45.3952 36.2536 43.8768 36.2536 42.3584C36.2536 40.8244 36.2536 39.2747 36.2536 37.7407ZM35.2361 43.9238C35.2361 46.1779 33.3733 48.025 31.1349 47.9937C28.8964 47.9624 27.0963 46.1466 27.0806 43.9238C27.0806 41.6697 28.8964 39.8382 31.1662 39.8382C33.4203 39.8382 35.2361 41.654 35.2361 43.9238ZM24.8265 46.9136C24.8265 47.6024 24.4821 47.9937 23.9499 47.9937C23.4177 47.9937 23.0733 47.5711 23.0733 46.898C23.0733 44.9569 23.0733 43.0002 23.0733 41.0592C23.0733 40.5739 23.1203 40.1043 23.6525 39.9008C24.1847 39.6973 24.5447 39.9948 24.8265 40.3861C25.0926 40.2609 25.3274 40.1356 25.5935 40.0574C26.0788 39.8852 26.4388 40.073 26.6736 40.4957C26.8928 40.9183 26.7206 41.3723 26.2979 41.6384C25.9849 41.8419 25.6718 42.0297 25.4057 42.2958C24.9987 42.6872 24.8108 43.1881 24.8265 43.7673C24.8421 44.8161 24.8265 45.8648 24.8265 46.9136ZM17.3754 46.898C17.3754 47.5867 17.031 47.9937 16.4988 47.9937C15.9666 47.9937 15.6222 47.6024 15.6222 46.9136C15.6222 44.9569 15.6222 43.0159 15.6222 41.0592C15.6222 40.6053 15.6222 40.1513 16.1231 39.9165C16.624 39.6817 16.9841 39.9322 17.2189 40.1826C17.845 40.073 18.3929 39.9008 18.9408 39.9008C20.4592 39.9321 21.5079 40.8714 21.6958 42.5463C21.868 44.049 21.821 45.5831 21.821 47.1015C21.821 47.6337 21.3984 47.9624 20.8818 47.9311C20.3965 47.8998 20.0991 47.5711 20.0835 47.0232C20.0522 45.677 20.0678 44.3308 19.9896 42.9846C19.9269 42.061 19.5356 41.6384 18.9095 41.6227C18.2051 41.6071 17.6572 42.061 17.4693 42.9063C17.3911 43.2977 17.3754 43.7203 17.3754 44.1273C17.3598 45.0665 17.3754 45.9901 17.3754 46.898ZM12.8202 41.4662C13.5246 41.4662 13.9003 41.7793 13.9003 42.3428C13.9003 42.8907 13.509 43.2194 12.8202 43.2194C12.0219 43.2194 11.2236 43.2194 10.3783 43.2194V46.2562C10.9575 46.2562 11.5366 46.2562 12.1158 46.2562C12.6011 46.2562 13.0863 46.2405 13.5873 46.2718C14.0412 46.3031 14.3073 46.5849 14.3543 47.0232C14.4012 47.4928 14.1821 47.8059 13.7281 47.9468C13.5873 47.9937 13.4151 48.0094 13.2742 48.0094C12.0845 48.0094 10.8949 48.025 9.70519 48.0094C8.90686 48.0094 8.60944 47.6963 8.60944 46.898C8.60944 43.8455 8.60944 40.8087 8.60944 37.7563C8.60944 36.958 8.92251 36.6762 9.72084 36.6762C10.9105 36.6762 12.1002 36.6762 13.2898 36.6762C13.9786 36.6762 14.3699 37.0049 14.3856 37.5528C14.3856 38.1007 13.9943 38.4294 13.3055 38.4294C12.3506 38.4294 11.3958 38.4294 10.4096 38.4294V41.4662C11.2236 41.4662 12.0219 41.4662 12.8202 41.4662Z" fill="#166805"/>
<path id="Vector_8" d="M33.4675 43.9082C33.4675 45.2074 32.403 46.2719 31.1194 46.2406C29.8515 46.2249 28.8184 45.1761 28.8184 43.9082C28.8184 42.609 29.8671 41.5758 31.1664 41.5915C32.45 41.6071 33.4675 42.6246 33.4675 43.9082Z" fill="#166805"/>
<path id="Vector_9" d="M49.5747 5.10294V30.0077C49.5747 21.9305 49.5747 13.8376 49.5747 5.76038C49.5747 5.46297 49.5747 5.16555 49.5434 4.88379C49.3086 2.61403 48.1033 1.09563 46.0057 0.281649C45.7709 0.187728 45.5361 0.125114 45.3013 0.0625C47.7276 0.453838 49.5747 2.56706 49.5747 5.10294Z" fill="#166805"/>
<path id="Vector_10" d="M49.5745 30.0078V54.8969C49.5745 57.7146 47.2891 60 44.4715 60H21.0068C28.7397 60 36.4725 60 44.2054 59.9843C44.8158 59.9843 45.4576 59.8747 46.0368 59.6869C48.3066 58.9199 49.5745 56.9475 49.5745 54.2551C49.5745 46.1623 49.5745 38.085 49.5745 30.0078Z" fill="#166805"/>
</g>
</svg>
