<svg width="61" height="53" viewBox="0 0 61 53" fill="none" xmlns="http://www.w3.org/2000/svg">
<g id="Group 545902">
<path id="Vector" d="M60.4298 45.9412C60.3825 46.02 60.3352 46.0989 60.3037 46.1935C59.8149 47.7543 58.664 48.7633 57.0402 48.8263C54.7384 48.9052 52.4366 48.8579 50.1505 48.8579C50.0244 48.8579 49.8825 48.8106 49.6933 48.7633C49.6933 48.5426 49.6933 48.3376 49.6933 48.1327C49.6933 45.0899 49.7564 42.0313 49.6776 38.9885C49.5987 35.3624 48.8262 31.894 46.6663 28.8669C46.0514 27.9998 45.3578 27.1958 44.6641 26.3287C45.5312 25.5561 46.5875 25.0043 47.7857 24.7836C49.914 24.4052 52.0582 24.3422 54.1708 24.7521C57.3555 25.367 59.7834 28.0156 60.3194 31.216C60.3352 31.3264 60.3982 31.4368 60.4298 31.5471C60.4298 36.3399 60.4298 41.1327 60.4298 45.9412Z" fill="#166805"/>
<path id="Vector_2" d="M29.5607 52.6262C25.9661 52.6262 22.3715 52.642 18.7612 52.6262C16.6013 52.6105 15.0405 51.5542 14.4729 49.7096C14.3626 49.3785 14.2837 49.0159 14.2837 48.669C14.268 45.3109 14.1734 41.9371 14.2995 38.579C14.5044 33.1871 16.8693 29.0249 21.6305 26.329C23.5855 25.2254 25.6981 24.6736 27.9211 24.5317C30.4909 24.3583 33.0922 24.3268 35.599 24.9574C40.9751 26.2975 45.6102 31.5948 45.9886 37.1128C46.2408 41.0069 46.1147 44.9326 46.0989 48.8425C46.0989 49.347 45.8625 49.8672 45.6733 50.356C45.2476 51.4753 44.3962 52.1848 43.2138 52.2951C41.2431 52.4843 39.2566 52.6262 37.2859 52.6735C34.7161 52.7366 32.1305 52.6893 29.5607 52.6893C29.5607 52.6735 29.5607 52.6578 29.5607 52.6262Z" fill="#166805"/>
<path id="Vector_3" d="M30.2231 0C35.9145 0 40.4866 4.58782 40.4866 10.2792C40.4866 15.9391 35.8357 20.5585 30.1758 20.527C24.5317 20.4954 19.9438 15.9076 19.9438 10.2635C19.9438 4.57206 24.5317 0 30.2231 0Z" fill="#166805"/>
<path id="Vector_4" d="M10.7365 48.7949C10.4211 48.8264 10.1689 48.8579 9.91664 48.8579C7.83556 48.8579 5.75449 48.8737 3.65765 48.8422C1.41891 48.8264 0 47.376 0 45.1215C0 40.9593 0 36.7814 0 32.6192C0 28.126 3.38963 24.626 7.88286 24.563C9.52249 24.5314 11.1779 24.6418 12.8175 24.831C13.9369 24.9571 14.9144 25.572 15.813 26.3445C15.7027 26.4706 15.6081 26.5967 15.4977 26.7071C12.6599 29.6711 11.1148 33.2499 10.8941 37.2859C10.6892 40.8962 10.7838 44.5066 10.7365 48.1327C10.7365 48.3377 10.7365 48.5268 10.7365 48.7949Z" fill="#166805"/>
<path id="Vector_5" d="M9.47517 7.55182C13.0698 7.56759 15.9549 10.4685 15.9391 14.0473C15.9234 17.6261 12.9752 20.5428 9.42788 20.5112C5.84906 20.4797 2.94817 17.5631 2.96393 14C2.96393 10.4212 5.88059 7.53606 9.47517 7.55182Z" fill="#166805"/>
<path id="Vector_6" d="M57.466 14.0473C57.4502 17.6261 54.502 20.5428 50.9547 20.5112C47.3759 20.4797 44.475 17.5631 44.4908 14C44.5066 10.4212 47.4232 7.53606 51.002 7.55182C54.5966 7.56759 57.4817 10.4685 57.466 14.0473Z" fill="#166805"/>
</g>
</svg>
