<svg width="393" height="446" viewBox="0 0 393 446" fill="none" xmlns="http://www.w3.org/2000/svg">
<path d="M339.382 231.84C338.539 231.84 337.696 231.629 337.063 231.419L287.324 202.545C286.692 202.123 286.271 201.702 286.271 201.069C286.271 200.437 286.692 199.805 287.535 199.173L336.642 170.72C338.117 169.877 340.436 169.666 341.7 170.509L391.439 199.173C392.072 199.594 392.493 200.016 392.493 200.648C392.493 201.28 392.072 201.912 391.229 202.545L342.122 230.997C341.489 231.629 340.436 231.84 339.382 231.84ZM337.485 230.576C338.539 231.208 340.436 230.997 341.7 230.365L390.807 201.912C391.439 201.491 391.65 201.069 391.65 200.648C391.65 200.226 391.229 200.016 391.018 199.805L341.279 171.142C340.225 170.509 338.328 170.72 337.063 171.352L287.957 199.805C287.324 200.226 287.114 200.648 287.114 201.069C287.114 201.491 287.535 201.702 287.746 201.912L337.485 230.576Z" fill="#145F05"/>
<path d="M392.283 179.994V186.106L339.382 216.455L286.481 186.106V179.994H392.283Z" fill="url(#paint0_linear_1120_4891)"/>
<path d="M339.382 210.343L286.481 179.994L339.382 149.434L392.283 179.994L339.382 210.343Z" fill="#846C28"/>
<path d="M339.382 209.711L287.114 179.572L286.481 179.994L339.382 210.343L392.283 179.994L391.65 179.572L339.382 209.711Z" fill="#104C04"/>
<path d="M339.382 203.388L298.706 179.994L339.382 156.389L380.059 179.994L339.382 203.388Z" fill="#0F054C"/>
<path opacity="0.5" d="M339.382 203.388L298.706 179.994L339.382 156.389L380.059 179.994L339.382 203.388Z" fill="url(#paint1_linear_1120_4891)"/>
<path opacity="0.5" d="M339.382 150.487L380.059 174.092V179.994L339.382 156.389V150.487Z" fill="url(#paint2_linear_1120_4891)"/>
<path opacity="0.5" d="M339.382 156.389L298.706 179.994V174.092L339.382 150.487V156.389Z" fill="url(#paint3_linear_1120_4891)"/>
<path opacity="0.5" d="M339.382 197.487L298.706 174.092L339.382 150.487L380.059 174.092L339.382 197.487Z" fill="url(#paint4_linear_1120_4891)"/>
<path d="M339.382 183.365L323.154 174.092L339.382 164.608L355.611 174.092L339.382 183.365Z" fill="#95BA8D"/>
<path d="M339.382 165.451L354.978 174.514L355.611 174.092L339.382 164.608L323.154 174.092L323.997 174.514L339.382 165.451Z" fill="#AAC8A4"/>
<path opacity="0.5" d="M339.382 197.487V203.388L380.059 179.994V174.092L339.382 197.487Z" fill="url(#paint5_linear_1120_4891)"/>
<path opacity="0.5" d="M298.706 174.092V179.994L339.382 203.388V197.487L298.706 174.092Z" fill="url(#paint6_linear_1120_4891)"/>
<path d="M339.382 196.854L299.338 173.671L298.706 174.092L339.382 197.487L380.059 174.092L379.426 173.671L339.382 196.854Z" fill="#F6D67B"/>
<path d="M379.426 90C383.43 91.0538 387.224 92.1076 391.018 93.1614V121.192C387.224 120.139 383.43 119.085 379.426 118.031V90Z" fill="#C6A23C"/>
<path opacity="0.5" d="M352.449 91.2642C356.664 92.1072 360.879 92.9502 364.884 93.7933V114.658C360.879 113.815 356.664 112.972 352.449 112.129V91.2642Z" fill="#C6A23C"/>
<path d="M323.996 68.5024C328.422 69.1347 332.848 69.767 337.063 70.3993V109.39C332.637 108.757 328.422 108.125 323.996 107.493V68.5024Z" fill="#C6A23C"/>
<path opacity="0.5" d="M294.068 43.8433C298.705 44.2648 303.342 44.4755 307.768 45.1078V105.596C303.131 105.174 298.705 104.753 294.068 104.331V43.8433Z" fill="#C6A23C"/>
<path opacity="0.5" d="M262.876 56.9106C267.723 56.9106 272.571 57.1214 277.208 57.3322V103.488C272.36 103.278 267.723 103.067 262.876 103.067V56.9106Z" fill="#C6A23C"/>
<path d="M231.262 8.43617C235.899 8.22541 240.746 8.01465 245.594 8.01465V103.067C240.746 103.067 236.11 103.278 231.262 103.489V8.43617Z" fill="#C6A23C"/>
<path d="M200.702 28.0367C205.339 27.6152 209.765 27.1937 214.401 26.9829V104.542C209.765 104.964 205.128 105.175 200.702 105.596V28.0367Z" fill="#C6A23C"/>
<path d="M171.617 2.74546C176.043 2.11319 180.258 1.48091 184.684 0.848633V107.282C180.258 107.914 175.832 108.547 171.617 109.179V2.74546Z" fill="#C6A23C"/>
<g opacity="0.5">
<g opacity="0.11">
<path d="M240.325 337.642C235.688 334.902 229.998 334.902 225.572 337.642L137.264 388.435C135.788 389.278 135.788 391.175 137.264 392.018L226.204 443.443C230.208 445.761 235.267 445.761 239.271 443.443L328.422 392.018C329.898 391.175 329.898 389.278 328.422 388.435L240.325 337.642Z" fill="url(#paint7_linear_1120_4891)"/>
</g>
<g opacity="0.11">
<path d="M240.325 322.677C235.688 319.938 229.998 319.938 225.572 322.677L137.264 373.47C135.788 374.313 135.788 376.21 137.264 377.053L226.204 428.479C230.208 430.797 235.267 430.797 239.271 428.479L328.422 377.053C329.898 376.21 329.898 374.313 328.422 373.47L240.325 322.677Z" fill="url(#paint8_linear_1120_4891)"/>
</g>
<g opacity="0.11">
<path d="M240.325 307.925C235.688 305.185 229.998 305.185 225.572 307.925L137.264 358.717C135.788 359.561 135.788 361.457 137.264 362.3L226.204 413.726C230.208 416.044 235.267 416.044 239.271 413.726L328.422 362.3C329.898 361.457 329.898 359.561 328.422 358.717L240.325 307.925Z" fill="url(#paint9_linear_1120_4891)"/>
</g>
<g opacity="0.11">
<path d="M240.325 292.961C235.688 290.221 229.998 290.221 225.572 292.961L137.264 343.754C135.788 344.597 135.788 346.493 137.264 347.336L226.204 398.762C230.208 401.08 235.267 401.08 239.271 398.762L328.422 347.336C329.898 346.493 329.898 344.597 328.422 343.754L240.325 292.961Z" fill="url(#paint10_linear_1120_4891)"/>
</g>
<path opacity="0.11" d="M328.633 343.964L240.535 292.961C235.899 290.221 230.208 290.221 225.782 292.961L137.474 343.754C136.842 344.175 136.42 344.807 136.42 345.65V390.331C136.42 390.964 136.842 391.807 137.474 392.228L226.415 443.653C230.419 445.972 235.477 445.972 239.482 443.653L328.633 392.228C329.265 391.807 329.687 391.174 329.687 390.331V345.65C329.687 345.018 329.265 344.175 328.633 343.964Z" fill="url(#paint11_linear_1120_4891)"/>
</g>
<g opacity="0.11">
<path d="M240.325 273.571C235.688 271.042 229.998 271.042 225.572 273.571L137.264 321.835C135.788 322.678 135.788 324.575 137.264 325.207L226.204 373.893C230.208 376 235.267 376 239.271 373.893L328.422 325.207C329.898 324.364 329.898 322.467 328.422 321.835L240.325 273.571Z" fill="url(#paint12_linear_1120_4891)"/>
</g>
<g opacity="0.11">
<path d="M240.325 259.45C235.688 256.921 229.998 256.921 225.572 259.45L137.264 307.714C135.788 308.557 135.788 310.454 137.264 311.086L226.204 359.771C230.208 361.879 235.267 361.879 239.271 359.771L328.422 311.086C329.898 310.243 329.898 308.346 328.422 307.714L240.325 259.45Z" fill="url(#paint13_linear_1120_4891)"/>
</g>
<g opacity="0.11">
<path d="M240.325 245.329C235.688 242.8 229.998 242.8 225.572 245.329L137.264 293.593C135.788 294.436 135.788 296.333 137.264 296.965L226.204 345.65C230.208 347.758 235.267 347.758 239.271 345.65L328.422 296.965C329.898 296.122 329.898 294.225 328.422 293.593L240.325 245.329Z" fill="url(#paint14_linear_1120_4891)"/>
</g>
<g opacity="0.11">
<path d="M240.325 231.419C235.688 228.89 229.998 228.89 225.572 231.419L137.264 279.683C135.788 280.526 135.788 282.423 137.264 283.055L226.204 331.741C230.208 333.848 235.267 333.848 239.271 331.741L328.422 283.055C329.898 282.212 329.898 280.315 328.422 279.683L240.325 231.419Z" fill="url(#paint15_linear_1120_4891)"/>
</g>
<path opacity="0.11" d="M328.633 279.472L240.535 231.208C235.899 228.679 230.208 228.679 225.782 231.208L137.474 279.472C136.842 279.894 136.42 280.526 136.42 281.158V323.521C136.42 324.153 136.842 324.785 137.474 325.207L226.415 373.892C230.419 376 235.477 376 239.482 373.892L328.633 325.207C329.265 324.785 329.687 324.153 329.687 323.521V281.158C329.687 280.526 329.265 279.894 328.633 279.472Z" fill="url(#paint16_linear_1120_4891)"/>
<g opacity="0.11">
<path d="M240.325 214.558C235.688 211.818 229.998 211.818 225.572 214.558L137.264 265.351C135.788 266.194 135.788 268.091 137.264 268.934L226.204 320.359C230.208 322.677 235.267 322.677 239.271 320.359L328.422 268.934C329.898 268.091 329.898 266.194 328.422 265.351L240.325 214.558Z" fill="url(#paint17_linear_1120_4891)"/>
</g>
<g opacity="0.11">
<path d="M240.325 199.594C235.688 196.855 229.998 196.855 225.572 199.594L137.264 250.387C135.788 251.23 135.788 253.127 137.264 253.97L226.204 305.396C230.208 307.714 235.267 307.714 239.271 305.396L328.422 253.97C329.898 253.127 329.898 251.23 328.422 250.387L240.325 199.594Z" fill="url(#paint18_linear_1120_4891)"/>
</g>
<g opacity="0.11">
<path d="M240.325 184.841C235.688 182.101 229.998 182.101 225.572 184.841L137.264 235.634C135.788 236.477 135.788 238.374 137.264 239.217L226.204 290.642C230.208 292.96 235.267 292.96 239.271 290.642L328.422 239.217C329.898 238.374 329.898 236.477 328.422 235.634L240.325 184.841Z" fill="url(#paint19_linear_1120_4891)"/>
</g>
<g opacity="0.11">
<path d="M240.325 169.877C235.688 167.137 229.998 167.137 225.572 169.877L137.264 220.67C135.788 221.513 135.788 223.41 137.264 224.253L226.204 275.678C230.208 277.997 235.267 277.997 239.271 275.678L328.422 224.253C329.898 223.41 329.898 221.513 328.422 220.67L240.325 169.877Z" fill="url(#paint20_linear_1120_4891)"/>
</g>
<path opacity="0.5" d="M328.633 220.881L240.535 169.877C235.899 167.137 230.208 167.137 225.782 169.877L137.474 220.67C136.842 221.092 136.42 221.724 136.42 222.567V267.248C136.42 267.88 136.842 268.723 137.474 269.145L226.415 320.57C230.419 322.888 235.477 322.888 239.482 320.57L328.633 269.145C329.265 268.723 329.687 268.091 329.687 267.248V222.567C329.687 221.935 329.265 221.302 328.633 220.881Z" fill="url(#paint21_linear_1120_4891)"/>
<g opacity="0.11">
<path d="M240.325 169.877C235.688 167.137 229.998 167.137 225.572 169.877L137.264 220.67C135.788 221.513 135.788 223.41 137.264 224.253L226.204 275.678C230.208 277.997 235.267 277.997 239.271 275.678L328.422 224.253C329.898 223.41 329.898 221.513 328.422 220.67L240.325 169.877Z" fill="url(#paint22_linear_1120_4891)"/>
</g>
<path d="M328.633 222.356L239.482 273.781C235.478 276.1 230.419 276.1 226.415 273.781L137.475 222.356C137.053 222.145 136.842 221.935 136.632 221.513C135.999 222.356 136.421 223.832 137.475 224.253L226.415 275.678C230.419 277.997 235.478 277.997 239.482 275.678L328.633 224.253C329.687 223.621 329.898 222.356 329.476 221.513C329.055 221.935 328.844 222.145 328.633 222.356Z" fill="url(#paint23_linear_1120_4891)"/>
<path d="M146.538 238.163L148.856 239.428V237.953L146.538 236.688V238.163Z" fill="#42E8E0"/>
<path d="M146.538 248.069L148.856 249.333V240.692L146.538 239.428V248.069Z" fill="#42E8E0"/>
<path d="M146.538 252.706L148.856 253.97V250.598L146.538 249.333V252.706Z" fill="#42E8E0"/>
<path d="M146.538 257.764L148.856 259.028V255.656L146.538 254.392V257.764Z" fill="#42E8E0"/>
<path d="M143.376 240.903L145.484 242.167V238.795L143.376 237.531V240.903Z" fill="#42E8E0"/>
<path d="M143.376 247.437L145.484 248.701V243.643L143.376 242.378V247.437Z" fill="#42E8E0"/>
<path d="M143.376 253.548L145.484 254.813V250.387L143.376 249.123V253.548Z" fill="#42E8E0"/>
<path d="M146.538 262.611L148.856 263.875V260.503L146.538 259.239V262.611Z" fill="#42E8E0"/>
<path d="M143.376 236.266L145.484 237.531V236.056L143.376 234.791V236.266Z" fill="#42E8E0"/>
<path d="M145.062 266.405L148.856 268.723V267.248L145.062 265.14V266.405Z" fill="#42E8E0"/>
<path opacity="0.2" d="M232.948 250.177C259.138 250.177 280.369 237.91 280.369 222.778C280.369 207.646 259.138 195.379 232.948 195.379C206.758 195.379 185.527 207.646 185.527 222.778C185.527 237.91 206.758 250.177 232.948 250.177Z" fill="#180D5B"/>
<path d="M233.159 200.227V200.648L233.37 200.437C233.37 200.437 234.002 202.545 233.37 203.809C232.738 204.863 231.895 206.339 230.841 207.814C229.576 209.289 227.89 212.661 227.258 213.083C226.836 213.715 223.886 216.034 220.303 216.455C216.72 216.877 215.877 214.769 216.088 213.715C216.298 212.661 218.406 209.711 220.303 207.182C222.41 204.863 224.097 201.702 224.097 201.702L233.159 200.227Z" fill="#160A5B"/>
<path d="M222.41 190.532C222.41 190.532 222.621 192.85 222.2 193.693C221.989 194.536 216.72 194.958 214.823 195.168C212.926 195.379 209.765 196.644 208.711 197.276C207.657 197.697 200.913 198.54 200.07 196.011C199.227 193.482 203.442 191.375 206.393 190.742C209.343 190.11 213.98 188.635 213.98 188.635L222.41 190.532Z" fill="#0A2F02"/>
<path d="M240.536 145.007C240.536 145.007 240.746 151.541 238.639 160.393C236.531 169.245 236.742 175.568 236.742 175.568C236.742 175.568 239.06 185.684 236.953 192.428C235.056 199.383 233.37 201.28 233.37 201.28C233.37 201.28 229.365 206.549 224.307 201.912C224.307 201.912 227.258 192.428 227.469 185.052C227.469 185.052 224.94 179.572 224.096 174.725C224.096 174.725 223.253 182.523 222.832 185.684C222.832 185.684 223.253 190.321 221.989 192.218C220.724 194.114 215.245 194.536 213.348 191.374C211.662 188.213 214.823 189.688 213.769 174.725C213.769 174.725 208.711 168.402 207.868 156.599C207.025 144.797 207.236 140.16 207.868 137.842C208.5 135.523 219.881 127.304 219.881 127.304L226.204 135.523L240.536 145.007Z" fill="#104C04"/>
<path d="M223.886 177.254C223.675 176.2 223.253 175.146 223.043 173.882C223.043 173.882 222.2 181.68 221.778 184.841C221.778 184.841 222.2 189.478 220.935 191.375C220.092 192.639 217.563 193.272 215.245 192.639C217.563 193.693 220.935 193.061 221.989 191.796C223.253 189.9 222.832 185.263 222.832 185.263C223.253 183.366 223.464 179.783 223.886 177.254Z" fill="url(#paint24_linear_1120_4891)"/>
<path d="M240.536 145.008L226.415 135.102L220.092 126.882C220.092 126.882 219.881 127.093 219.67 127.304L225.572 134.68L239.693 144.586C239.693 144.586 239.903 151.12 237.796 159.972C235.688 168.823 235.899 175.146 235.899 175.146C235.899 175.146 238.217 185.263 236.11 192.007C234.213 198.962 232.527 200.859 232.527 200.859C232.527 200.859 229.998 204.02 226.625 203.177C230.841 205.074 233.581 201.28 233.581 201.28C233.581 201.28 235.267 199.383 237.163 192.428C239.06 185.473 236.953 175.568 236.953 175.568C236.953 175.568 236.742 169.245 238.849 160.393C240.746 151.541 240.536 145.008 240.536 145.008Z" fill="url(#paint25_linear_1120_4891)"/>
<path d="M215.245 158.075C213.348 155.756 212.294 148.801 212.294 148.801C212.294 148.801 215.245 154.703 217.352 156.389C219.46 158.075 221.146 161.447 221.567 163.765C221.989 166.084 224.096 174.303 224.096 174.303C224.096 174.303 223.253 182.101 222.832 185.263C222.832 185.263 223.253 189.899 221.989 191.796C221.778 192.218 221.357 192.428 220.724 192.85C220.724 192.85 220.935 182.523 220.724 178.097C220.514 173.671 217.141 160.393 215.245 158.075Z" fill="#082602"/>
<path d="M257.818 97.5869C257.818 97.5869 262.665 107.071 263.297 107.914C263.719 108.757 272.992 120.349 273.835 127.093C273.835 127.093 274.468 129.622 271.306 131.941C268.145 134.259 252.127 144.375 251.284 144.586C250.23 144.797 244.54 141.846 244.329 135.524C244.329 135.524 256.764 129.622 259.504 126.882C259.504 126.882 254.656 118.663 252.338 116.344C251.706 115.712 251.495 114.658 251.284 113.394C250.441 108.125 252.549 102.645 256.553 99.0622L257.818 97.5869Z" fill="#DCB442"/>
<path d="M221.146 75.0356C221.146 75.0356 213.559 77.7754 211.029 76.9324C208.5 75.8786 201.967 75.2463 197.752 72.7172C193.326 70.1881 174.357 65.3406 171.407 65.1299C171.407 65.1299 171.407 65.3406 171.828 65.3406C172.25 65.5514 174.357 65.7622 174.779 67.8698C175.411 70.1881 174.147 72.7172 173.725 72.928C173.304 73.1387 173.304 72.2957 171.407 71.4527C169.51 70.6096 168.456 70.6096 168.456 70.6096L167.824 71.4527L167.402 72.5065C167.402 72.5065 168.245 75.2463 170.774 75.4571C173.304 75.6678 188.9 82.2014 189.954 82.4121C191.007 82.6229 204.074 88.3134 206.604 89.3672C209.133 90.2102 211.029 91.4748 211.029 91.4748C211.029 91.4748 218.828 86.4166 219.038 86.4166C219.038 85.995 221.146 75.0356 221.146 75.0356Z" fill="#846C28"/>
<path d="M152.438 61.9683C152.86 61.9683 156.654 63.4436 156.654 63.4436C156.654 63.4436 155.178 64.2866 154.967 64.9189C154.757 65.5512 155.389 69.5556 155.389 69.9771C155.6 70.1879 156.443 70.8202 156.654 70.8202C156.864 71.0309 157.497 72.2955 158.129 72.0847C158.761 71.874 158.972 71.2417 158.972 71.2417C158.972 71.2417 159.393 71.0309 159.604 71.0309C159.815 71.0309 162.555 71.2417 163.609 71.874C164.452 72.5062 166.77 72.717 167.613 72.5062C168.456 72.2955 169.721 71.6632 170.142 71.4524C170.142 71.4524 171.196 71.6632 171.617 71.874C172.25 72.0847 173.936 73.3493 174.147 73.3493C174.357 73.3493 177.94 66.605 171.617 65.1297C171.617 65.1297 169.088 64.9189 167.824 64.2866C166.77 63.6544 163.398 61.336 162.344 61.1252C161.079 61.1252 160.026 61.5468 160.026 61.5468C160.026 61.5468 152.86 59.4392 152.228 60.0715C151.174 60.9145 152.017 61.9683 152.438 61.9683ZM157.707 66.8157C158.55 66.8157 159.183 65.9727 159.183 65.9727C159.815 66.3942 160.236 65.9727 160.236 65.9727C160.236 66.1835 161.29 66.1835 161.29 66.1835C161.29 66.1835 161.712 66.605 162.344 67.0265C162.976 67.448 162.133 68.7126 162.133 68.7126C161.501 68.7126 160.869 68.5018 160.447 68.2911C159.815 68.0803 159.393 68.0803 159.183 67.8695C158.55 67.448 157.707 66.8157 157.707 66.8157Z" fill="#FCD1C5"/>
<path d="M208.079 137.42C208.711 135.102 220.092 126.882 220.092 126.882L223.253 130.887L225.993 141.425L240.535 145.851C240.535 145.851 239.692 153.227 227.89 152.384C216.087 151.541 214.612 142.268 214.612 142.268C214.612 142.268 213.348 145.218 207.446 146.061C207.446 141.425 207.657 138.896 208.079 137.42Z" fill="#082602"/>
<path d="M243.276 80.9369L245.173 85.9951C245.173 85.9951 254.867 94.4255 257.607 97.3761C257.607 97.3761 252.76 106.439 251.917 116.134C251.917 116.134 247.491 119.717 246.226 121.403C244.962 123.089 241.59 130.676 240.536 133.205C239.482 135.734 242.433 143.322 242.433 143.322C242.433 143.322 238.428 150.909 231.684 150.698C225.15 150.487 220.514 146.483 219.671 139.317C218.828 132.151 219.038 131.098 219.038 131.098C219.038 131.098 216.088 139.949 211.662 139.949C207.236 139.949 200.07 132.362 200.07 132.362C200.07 132.362 195.223 127.936 195.644 126.039C196.066 124.143 207.025 107.071 207.657 104.12C208.29 101.381 210.608 91.2641 210.608 91.2641L220.935 75.0356L227.258 75.2464L243.276 80.9369Z" fill="#DCB442"/>
<path d="M231.473 149.012C225.15 148.801 220.724 145.008 219.67 138.474C219.67 138.685 219.67 139.106 219.881 139.317C220.724 146.483 225.15 150.487 231.894 150.698C238.428 150.909 242.643 143.322 242.643 143.322C242.643 143.322 242.432 142.689 242.222 141.846C240.957 143.532 237.163 149.223 231.473 149.012Z" fill="#B09035"/>
<path d="M243.276 80.937C243.276 80.937 243.276 84.0984 242.011 87.049C240.747 89.9997 236.953 107.282 227.89 112.972L224.518 115.08V104.121C224.518 104.121 224.518 97.3762 226.204 93.161C227.679 88.9459 227.679 83.6769 227.679 83.6769L230.209 83.0446C230.209 83.4661 243.276 80.937 243.276 80.937Z" fill="#F0F6FF"/>
<path d="M232.316 88.9458C232.316 88.9458 230.63 89.5781 229.998 88.5243C229.365 87.4705 228.522 85.3629 228.733 84.5199C228.733 84.5199 224.518 84.7306 223.675 82.4123C222.832 80.0939 223.675 79.6724 223.886 78.8294C224.096 77.9864 224.096 76.3003 224.729 75.0357V74.4035C224.729 74.4035 223.886 73.5604 224.307 72.9281C224.729 72.0851 227.047 69.7667 227.258 69.3452C227.469 68.9237 227.258 65.9731 228.101 64.4978C228.944 63.0225 230.841 60.9149 230.841 60.9149C230.841 60.9149 239.903 53.9598 247.069 60.9149C254.235 67.8699 243.486 80.937 243.486 80.937C243.486 80.937 242.643 85.1522 240.536 86.8382C238.428 88.5243 232.316 88.9458 232.316 88.9458Z" fill="#FCD1C5"/>
<path d="M238.849 71.8743C238.849 71.6635 238.849 71.4528 239.06 71.0312C239.271 70.1882 239.692 68.0806 237.585 66.6053C234.845 64.7085 229.998 62.8116 230.208 60.9148C230.419 59.018 238.006 53.9597 243.486 56.6996C248.966 59.2287 254.235 65.973 250.441 72.9281C246.648 79.8831 243.275 81.1477 243.275 81.1477C243.275 81.1477 242.222 80.9369 243.065 79.6724C244.118 78.4078 246.015 75.6679 244.329 74.6141C242.854 73.7711 240.114 75.6679 239.692 76.0895C239.482 76.3002 239.482 76.511 239.271 76.7217C239.06 77.1433 238.639 77.1432 238.217 76.9325H238.006C237.585 76.7217 237.585 76.3002 237.585 76.0895L238.217 74.1926C238.217 73.9819 238.428 73.5603 238.428 73.3496L238.849 71.8743Z" fill="#AA8383"/>
<path d="M232.527 91.0532C232.527 91.0532 234.634 92.5285 235.688 95.2684C235.688 95.2684 233.581 92.9501 232.316 92.5285C232.316 92.5285 229.998 93.5823 229.998 94.4254C229.998 95.2684 229.787 99.6943 229.155 102.013C228.522 104.331 228.733 112.761 228.733 112.761L227.258 113.815L226.625 110.232L226.836 102.434L228.312 95.2684C228.312 95.2684 228.522 92.5285 228.733 92.3178C228.733 91.8963 232.527 91.0532 232.527 91.0532Z" fill="#C4CCD6"/>
<path d="M232.527 91.053C232.527 91.053 230.209 88.5239 229.155 88.5239C227.89 88.5239 227.469 89.1562 227.258 89.1562C227.258 89.367 226.204 93.1606 226.204 93.1606C226.204 93.1606 224.097 99.9049 224.307 107.703C224.518 115.501 224.729 115.501 224.729 115.501L227.679 113.604C227.679 113.604 226.836 108.125 228.522 101.591C229.998 95.0575 228.733 94.2144 229.366 93.5821C229.998 92.7391 232.948 91.6853 232.527 91.053Z" fill="#846C28"/>
<path d="M246.437 121.613C245.172 123.299 241.8 130.887 240.746 133.416C240.536 133.837 240.536 134.47 240.536 134.891C240.325 135.102 240.114 135.102 240.114 135.102L238.639 133.627C238.639 133.627 239.903 128.99 242.011 123.089C244.118 117.398 252.338 115.923 252.338 115.923C252.338 115.923 247.701 119.927 246.437 121.613Z" fill="#846C28"/>
<path d="M244.119 135.734C244.119 135.734 241.8 132.362 240.957 131.94C240.957 131.94 241.168 132.994 239.693 133.416C238.428 134.048 231.473 136.788 231.052 136.999C230.841 137.209 231.052 137.631 231.473 137.842C231.473 137.842 229.998 138.263 229.365 138.263C228.733 138.263 227.89 139.106 228.312 139.739C228.733 140.371 228.944 140.371 228.944 140.371C228.944 140.371 228.733 141.003 229.155 141.214C229.576 141.425 230.63 141.425 230.63 141.425C230.63 141.425 230.419 142.057 231.052 142.478C231.684 142.689 234.424 143.111 234.424 143.111C234.424 143.111 236.531 142.9 237.164 142.9C237.796 142.9 240.746 143.532 241.8 143.321C243.065 143.111 247.069 141.635 247.491 141.425C248.545 141.214 244.119 135.734 244.119 135.734Z" fill="#FCD1C5"/>
<path d="M245.804 87.8921L245.594 92.5288L243.065 93.3718L244.751 94.6364C244.751 94.6364 238.006 110.022 229.365 114.659C229.365 114.659 237.585 111.708 245.383 94.6364C245.383 94.6364 244.54 93.5826 244.329 93.3718L246.015 92.5288L245.804 87.8921Z" fill="#846C28"/>
<path d="M223.886 87.2598C223.886 87.2598 220.935 102.856 223.464 114.658C223.464 114.658 220.303 108.968 223.254 87.2598H223.886Z" fill="#846C28"/>
<path d="M155.178 64.4975C155.6 63.8652 156.654 63.2329 156.654 63.2329C156.654 63.2329 159.815 64.4975 160.447 64.7082C160.447 64.919 157.286 64.4975 155.178 64.4975Z" fill="#E2B1A6"/>
<path d="M173.725 73.3498C173.514 73.3498 173.093 72.9283 172.46 72.7176C174.568 69.7669 172.25 65.5518 172.25 65.5518C177.097 67.2378 174.146 73.3498 173.725 73.3498Z" fill="#E2B1A6"/>
<path d="M248.334 141.425C248.123 141.635 245.805 142.478 244.118 142.9C244.118 142.9 243.065 138.685 243.275 137.21C243.486 135.734 244.118 135.523 244.118 135.523C244.118 135.734 244.329 135.734 244.329 135.734C244.329 135.734 248.544 141.214 248.334 141.425Z" fill="#E2B1A6"/>
<path d="M244.119 135.523C244.119 135.523 243.486 138.053 244.962 139.949C246.648 141.846 246.858 142.057 246.858 142.057H248.755C248.755 142.057 249.809 139.106 249.598 139.106C249.388 138.896 244.119 135.523 244.119 135.523Z" fill="#4846A5"/>
<path d="M226.415 91.8965C226.415 91.8965 224.518 102.645 224.939 106.439C225.361 110.443 225.15 114.658 225.15 114.658L224.518 115.08L224.307 115.291C224.307 115.291 224.096 115.291 223.885 107.493C223.675 99.6946 225.782 92.9503 225.782 92.9503C225.782 92.9503 226.204 92.5288 226.415 91.8965Z" fill="#B09035"/>
<path d="M225.994 202.756C225.572 202.545 224.94 202.123 224.307 201.491C224.307 201.491 227.258 192.007 227.469 184.63C227.469 184.63 224.94 179.151 224.097 174.303C224.307 175.357 227.258 180.626 228.733 185.895C229.998 191.375 225.994 202.756 225.994 202.756Z" fill="#160A5B"/>
<path d="M239.06 79.251C239.06 79.4617 238.217 83.2554 236.742 85.1522C235.056 87.0491 234.002 88.7351 234.002 88.7351C232.948 88.9459 232.316 88.9459 232.316 88.9459C232.316 88.9459 230.63 89.5782 229.998 88.5244C229.365 87.4706 228.522 85.363 228.733 84.52C228.733 84.52 234.424 83.8877 236.742 82.4124C238.639 80.937 239.06 79.4617 239.06 79.251Z" fill="#E2B1A6"/>
<path d="M241.168 131.941C241.168 131.941 240.957 132.573 240.746 132.573L240.536 132.151L240.746 131.519C240.957 131.73 241.168 131.941 241.168 131.941Z" fill="#1B2B3A"/>
<path d="M224.518 115.291C224.518 115.291 220.514 127.937 219.249 131.098V134.259C219.46 134.259 224.518 118.452 224.518 115.291Z" fill="#846C28"/>
<path d="M220.724 119.927C220.513 120.77 220.935 121.403 221.567 121.613C222.2 121.824 223.043 121.403 223.253 120.56C223.464 119.717 223.043 119.084 222.41 118.874C221.778 118.663 220.935 119.084 220.724 119.927Z" fill="#846C28"/>
<path d="M218.827 125.407C218.617 126.25 219.038 126.883 219.67 127.093C220.303 127.304 221.146 126.883 221.356 126.04C221.567 125.197 221.146 124.564 220.513 124.354C219.67 124.143 219.038 124.564 218.827 125.407Z" fill="#846C28"/>
<path d="M238.85 74.1929C238.85 73.9821 239.06 73.5606 239.06 73.3499V71.8745C239.06 71.6638 239.06 71.453 239.271 71.0315C239.271 70.8207 239.482 70.3992 239.482 70.1885C239.482 70.1885 245.594 74.6144 249.598 74.8252C246.226 80.0941 243.486 81.1479 243.486 81.1479C243.486 81.1479 242.433 80.9372 243.276 79.6726C244.329 78.4081 246.226 75.6682 244.54 74.6144C243.065 73.7714 240.325 75.6682 239.903 76.0897C239.693 76.3005 239.693 76.5112 239.482 76.722C239.271 77.1435 238.85 77.1435 238.428 76.9328H238.217C237.796 76.722 237.796 76.3005 237.796 76.0897L238.85 74.1929Z" fill="#936D6D"/>
<path d="M250.441 240.903C250.441 240.903 247.701 241.536 244.961 241.746C242.222 241.957 234.845 243.432 235.056 246.172C235.266 248.912 239.06 252.917 243.908 253.549C248.755 254.181 254.867 252.706 258.028 252.917C261.19 252.917 263.297 249.755 262.033 246.594C260.979 243.432 250.441 240.903 250.441 240.903Z" fill="#0A2F02"/>
<path d="M266.881 233.527C266.881 233.527 267.934 235.213 267.513 236.267C267.091 237.32 265.616 239.849 261.19 237.32C256.764 234.791 248.334 231.419 248.334 231.419C248.334 231.419 243.486 228.89 243.697 225.729C243.908 222.778 248.545 223.2 248.545 223.2L266.881 233.527Z" fill="#160A5B"/>
<path d="M238.217 190.11C238.217 190.11 240.114 209.921 244.119 217.509C248.123 225.096 249.388 239.217 250.231 241.746C251.074 244.486 253.603 248.28 257.818 249.123C262.033 249.966 262.665 247.226 262.455 245.329C262.244 243.643 261.19 240.903 261.19 239.006C261.19 237.109 261.612 236.266 261.612 235.423C261.612 235.423 266.459 236.899 267.091 233.105C267.091 233.105 266.67 232.051 266.67 231.419C266.67 230.787 267.091 217.509 267.091 216.033C267.302 214.347 266.248 205.706 264.984 201.491C263.719 197.276 264.141 188.213 264.141 188.213L250.652 186.316L238.217 190.11Z" fill="#104C04"/>
<path d="M264.773 201.913C263.509 197.698 263.93 188.635 263.93 188.635L262.666 188.424C262.666 189.689 262.244 197.698 263.509 201.491C264.773 205.707 265.616 214.558 265.616 216.034C265.405 217.72 264.984 230.998 264.984 231.419C264.984 232.051 265.405 233.105 265.405 233.105C264.773 236.688 259.926 235.424 259.926 235.424C259.926 236.267 259.504 237.11 259.504 239.007C259.504 240.903 260.558 243.643 260.769 245.329C260.979 247.015 260.347 249.755 256.132 248.912C255.921 248.912 255.921 248.912 255.71 248.701C256.132 248.912 256.764 249.123 257.397 249.123C261.612 249.966 262.244 247.226 262.033 245.329C261.822 243.643 260.769 240.903 260.769 239.007C260.769 237.11 261.19 236.267 261.19 235.424C261.19 235.424 265.827 236.899 266.67 233.316C266.67 233.316 266.248 232.262 266.248 231.63C266.248 230.998 266.67 217.72 266.67 216.245C267.091 214.769 266.248 206.128 264.773 201.913Z" fill="#846C28"/>
<path d="M259.926 189.9C259.926 189.9 259.926 193.061 258.661 195.59C258.661 195.59 258.661 206.128 257.607 211.397C257.607 211.397 259.293 222.146 260.558 225.518C261.612 228.89 261.612 235.634 261.612 235.634C261.612 235.634 262.244 235.845 262.876 235.845C263.719 235.845 263.719 222.778 262.455 220.46C261.19 218.141 260.347 207.814 260.769 204.864C261.19 201.702 260.98 192.85 261.612 191.375C262.244 189.9 260.98 189.057 260.98 189.057L259.926 189.9Z" fill="#082602"/>
<path d="M248.544 118.452C248.544 118.452 244.54 121.192 244.751 126.25L247.701 125.618C247.701 125.407 246.858 120.138 248.544 118.452Z" fill="#846C28"/>
<path d="M250.231 194.325C259.082 194.536 263.93 190.532 263.93 190.532C263.93 189.267 263.93 188.424 263.93 188.424L250.441 186.527L238.217 189.899C238.217 189.899 238.639 193.904 239.271 198.751C241.379 198.962 243.697 193.693 243.697 193.693L249.809 194.115C249.809 194.325 241.168 194.115 250.231 194.325Z" fill="#082602"/>
<path d="M239.904 190.321C239.904 190.321 259.293 198.33 268.778 183.155C268.988 182.734 269.199 182.102 269.199 181.68L268.988 178.097C268.988 177.676 268.988 177.254 269.199 176.833C269.41 175.989 269.621 174.936 269.41 174.093C268.778 170.088 266.67 159.55 266.248 156.6C265.616 153.017 267.513 138.474 270.885 132.362C274.047 126.25 265.827 112.34 265.827 112.34C265.827 112.34 263.719 109.179 259.926 110.233C259.926 110.233 263.719 112.762 261.612 115.712C259.504 118.452 253.392 120.771 253.392 120.771C253.392 120.771 242.011 126.672 238.217 133.838C238.217 133.838 236.953 137.631 236.742 142.268C236.531 147.115 237.164 158.496 236.953 160.183C236.742 161.869 236.11 172.617 236.11 173.25C236.11 173.46 239.904 190.321 239.904 190.321Z" fill="#DCB442"/>
<path d="M261.612 112.13C261.823 111.287 261.823 110.654 261.612 110.022C260.98 110.022 260.558 110.022 259.926 110.233C259.926 110.022 260.98 110.865 261.612 112.13Z" fill="url(#paint26_linear_1120_4891)"/>
<path d="M245.804 192.007C245.804 192.007 257.185 161.026 256.764 149.855C256.132 138.896 240.114 171.985 240.114 171.985V190.321C239.903 190.321 243.486 191.796 245.804 192.007Z" fill="#846C28"/>
<path d="M268.777 173.882C268.567 174.304 268.567 174.725 268.567 175.147L268.777 178.73C268.777 179.151 268.567 179.783 268.356 180.205C258.872 195.169 239.482 187.371 239.482 187.371C239.482 187.371 236.742 175.147 235.899 171.353C235.899 172.407 235.899 173.039 235.899 173.039C235.899 173.461 239.693 190.532 239.693 190.532C239.693 190.532 259.082 198.541 268.567 183.366C268.777 182.945 268.988 182.313 268.988 181.891L268.777 178.308C268.777 177.887 268.777 177.465 268.988 177.044C269.199 176.2 269.41 175.147 269.199 174.304C269.199 173.882 268.988 173.461 268.988 172.828C268.988 173.25 268.988 173.461 268.777 173.882Z" fill="#B09035"/>
<path d="M270.464 129.623C267.302 135.946 265.405 150.277 265.827 153.86C265.827 154.282 266.038 154.703 266.038 155.125C266.038 149.856 267.934 138.053 270.674 132.363C271.517 130.677 271.517 128.358 271.096 125.829C271.307 127.094 271.096 128.569 270.464 129.623Z" fill="#B09035"/>
<path d="M239.693 155.546C240.114 153.017 240.325 150.488 240.325 147.959C240.325 143.533 241.589 136.156 249.598 137.421C260.769 139.317 256.132 154.914 254.867 157.653C253.603 160.393 248.755 172.828 248.545 173.671C248.334 174.303 240.536 189.9 237.796 193.693C237.585 194.115 237.164 194.115 236.742 193.904C235.688 192.85 233.159 190.743 232.738 189.267C232.316 187.37 234.002 180.626 234.002 180.626C234.002 180.626 238.428 163.765 238.85 162.922C238.639 162.29 238.85 159.55 239.693 155.546Z" fill="#DCB442"/>
<path d="M248.755 118.663C248.755 118.663 247.912 116.555 245.805 116.344C243.697 116.134 242.643 115.501 242.433 114.869C242.222 114.026 242.222 113.183 241.8 112.129C241.379 111.075 240.957 108.125 240.957 108.125C240.957 108.125 239.482 107.492 239.271 106.86C239.271 106.228 239.904 103.699 239.904 103.488C239.904 103.277 239.061 101.802 239.061 100.537C239.271 99.2728 239.271 97.5868 239.904 96.3222C240.536 94.8469 244.962 86.2058 256.343 90.6317C267.935 95.2684 259.083 104.753 260.136 111.075C260.136 111.075 261.19 112.34 259.293 114.658C257.397 116.977 251.917 117.398 248.755 118.663Z" fill="#FCD1C5"/>
<path d="M259.293 114.659C261.19 112.34 260.136 111.076 260.136 111.076C259.926 110.233 259.926 109.179 260.136 108.336L255.71 109.179C255.71 109.179 248.966 103.278 249.598 106.439C250.02 109.6 248.545 110.233 248.545 110.233L249.809 111.919C250.231 112.34 250.02 112.973 249.598 113.394C247.702 116.556 243.065 115.713 243.065 115.713C243.697 116.134 244.54 116.345 245.805 116.556C247.912 116.766 248.755 118.874 248.755 118.874C251.917 117.399 257.397 116.977 259.293 114.659Z" fill="#E2B1A6"/>
<path d="M239.271 92.9503C239.271 92.9503 238.428 95.2687 239.692 96.3225C240.957 97.3763 242.222 98.2193 242.222 98.2193V101.17C242.222 101.591 242.432 102.013 242.643 102.434L244.329 104.964C244.54 105.385 244.751 106.017 244.751 106.65V107.914C244.751 108.336 244.961 108.547 245.383 108.547H245.804C246.226 108.547 246.437 108.336 246.647 107.914L246.858 106.228C246.858 106.228 247.701 104.964 249.598 106.439L251.284 107.071C251.706 107.282 252.127 107.703 252.338 108.125C252.759 109.39 253.813 111.919 254.656 112.34C255.71 112.972 259.715 110.865 260.136 110.022C260.558 109.179 262.033 103.067 262.876 100.327C263.719 97.587 263.297 90.4212 254.656 88.7352C246.015 86.8383 240.535 90.4212 239.271 92.9503Z" fill="#AA8383"/>
<path d="M259.925 110.022C260.347 109.179 261.822 103.067 262.665 100.327C262.665 100.327 259.293 102.434 255.078 103.067C250.862 103.699 242.432 98.8516 242.432 98.8516V100.959C242.432 101.381 242.643 101.802 242.854 102.224L244.54 104.753C244.75 105.174 244.961 105.807 244.961 106.439V107.703C244.961 108.125 245.172 108.336 245.594 108.336H246.015C246.437 108.336 246.647 108.125 246.858 107.703L247.069 106.017C247.069 106.017 247.912 104.753 249.809 106.228L252.338 107.282C252.338 107.282 253.813 111.708 254.867 112.34C255.499 112.972 259.293 111.076 259.925 110.022Z" fill="#936D6D"/>
<path d="M260.137 110.443C260.137 110.443 263.509 112.551 261.823 115.291C260.137 118.241 248.123 123.3 247.702 124.143C247.702 124.143 247.28 119.717 248.756 118.452C248.756 118.452 257.818 116.766 259.293 114.237C260.558 111.919 260.137 110.443 260.137 110.443Z" fill="#F0F6FF"/>
<path d="M260.136 110.443C260.136 110.443 260.768 111.919 259.293 114.237C258.239 115.923 252.759 117.398 250.02 118.031C250.02 118.031 251.073 118.663 252.549 121.403C256.132 119.506 260.768 116.977 261.611 115.291C263.297 112.34 260.136 110.443 260.136 110.443Z" fill="#C4CCD6"/>
<path d="M262.244 119.717C262.244 119.717 256.975 122.667 254.235 124.143C251.706 125.618 248.755 127.304 248.755 127.304L247.701 126.25L246.437 128.779C246.437 128.779 242.432 131.309 240.536 133.205C238.639 135.313 237.163 137.842 236.953 138.474C236.953 138.474 242.011 131.73 246.015 129.833L247.069 129.201L247.701 127.093L248.755 128.147C248.966 128.569 260.558 121.403 262.244 119.717Z" fill="#846C28"/>
<path d="M248.544 209.922C248.333 209.5 248.123 209.079 247.912 208.868L225.993 190.532C225.361 190.111 224.939 190.321 224.728 191.375L222.199 212.873C221.989 213.926 222.41 214.98 223.042 215.612L241.378 231.419L240.746 237.531L246.226 235.002C246.437 234.792 246.647 234.581 246.647 233.949L248.755 211.608C248.755 210.976 248.755 210.554 248.544 209.922Z" fill="url(#paint27_linear_1120_4891)"/>
<path d="M219.881 192.64L225.15 190.321H225.361C225.572 190.321 225.783 190.321 225.993 190.532L247.912 208.868C248.123 209.079 248.545 209.5 248.545 209.922L247.702 210.343L243.276 212.451L224.097 196.012L219.881 192.64Z" fill="#569149"/>
<path d="M217.563 217.72L239.903 237.321C240.536 237.953 241.168 237.531 241.168 236.477L243.276 213.926C243.276 212.872 243.065 211.819 242.432 211.186L220.724 192.64C220.092 192.218 219.67 192.429 219.46 193.483L216.72 214.98C216.509 216.034 216.931 217.298 217.563 217.72Z" fill="#166805"/>
<path d="M244.118 235.002L246.226 212.662C246.226 211.608 245.804 210.554 245.383 209.922L223.464 191.586C223.253 191.375 223.042 191.375 223.042 191.375C223.253 191.375 223.464 191.375 223.675 191.586L245.594 209.922C246.226 210.343 246.647 211.608 246.437 212.662L244.118 235.002C244.329 235.634 243.908 236.056 243.486 236.056C243.908 236.056 243.908 235.634 244.118 235.002Z" fill="#160A5B"/>
<path d="M236.11 202.124L237.164 201.492C237.374 201.281 237.585 201.281 237.796 201.281C238.007 201.281 238.007 201.492 238.007 201.702V201.913L234.845 203.599V203.388C234.845 203.178 235.056 202.967 235.056 202.967L235.267 202.756C235.478 202.335 235.688 202.124 236.11 202.124Z" fill="#160A5B"/>
<path d="M236.531 204.863L234.845 203.599L238.007 201.491L239.693 202.756L236.531 204.863Z" fill="#160A5B"/>
<path d="M237.585 203.388L238.639 202.756C238.849 202.545 239.06 202.545 239.271 202.545C239.482 202.545 239.482 202.756 239.482 202.967V203.178L236.32 204.864V204.653C236.32 204.442 236.531 204.231 236.531 204.231L236.742 204.021C236.953 203.599 237.374 203.388 237.585 203.388Z" fill="url(#paint28_linear_1120_4891)"/>
<path d="M238.217 203.81L238.428 202.967H238.217V204.021V203.81Z" fill="#722318"/>
<path d="M238.428 202.967L236.742 201.702L238.217 202.967H238.428Z" fill="#722318"/>
<path d="M229.155 196.223L230.208 195.591C230.419 195.38 230.63 195.38 230.841 195.38C231.052 195.38 231.052 195.591 231.052 195.801V196.012L227.89 197.698V197.487C227.89 197.277 228.101 197.066 228.101 197.066L228.312 196.855C228.522 196.434 228.733 196.223 229.155 196.223Z" fill="#160A5B"/>
<path d="M229.365 198.962L227.89 197.698L231.052 195.59L232.527 196.855L229.365 198.962Z" fill="#160A5B"/>
<path d="M230.63 197.488L231.684 196.855C231.894 196.645 232.105 196.645 232.316 196.645C232.527 196.645 232.527 196.855 232.527 197.066V197.277L229.365 198.963V198.752C229.365 198.541 229.576 198.331 229.576 198.331L229.787 198.12C229.998 197.909 230.419 197.698 230.63 197.488Z" fill="url(#paint29_linear_1120_4891)"/>
<path d="M231.262 198.12L231.473 197.066H231.262V198.12Z" fill="#722318"/>
<path d="M231.473 197.066L229.787 195.801L231.262 197.066H231.473Z" fill="#722318"/>
<path d="M239.06 198.541L238.639 202.545L237.585 201.702L238.006 197.909C238.006 197.277 237.796 196.644 237.374 196.223L232.948 192.429C232.527 192.008 232.105 192.218 232.105 192.851L231.684 196.644L230.63 195.801L231.051 191.797C231.262 190.532 232.105 190.111 232.948 190.954L237.796 194.958C238.428 195.59 239.06 197.277 239.06 198.541Z" fill="#453C9E"/>
<path d="M231.262 192.008L233.159 191.797L238.428 196.855L238.639 200.016L238.428 202.546L237.163 203.178V200.016V197.909L236.11 196.434C236.11 196.434 234.213 194.748 234.002 194.748C234.213 194.326 231.262 192.008 231.262 192.008Z" fill="#453C9E"/>
<path d="M230.419 197.276L231.683 196.644L231.894 193.693L230.84 193.904H230.419V197.276Z" fill="#453C9E"/>
<path d="M230.419 191.165L231.683 190.532L231.473 191.375H231.051L230.419 191.165Z" fill="#453C9E"/>
<path d="M237.796 198.962L237.374 202.967L236.32 202.124L236.742 198.33C236.742 197.698 236.531 197.066 236.11 196.644L231.684 192.85C231.262 192.429 230.841 192.64 230.841 193.272L230.419 197.066L229.365 196.223L229.787 192.218C229.998 190.954 230.841 190.532 231.684 191.375L236.531 195.38C237.374 196.223 238.006 197.909 237.796 198.962Z" fill="#160A5B"/>
<path d="M232.737 189.057C232.737 189.057 231.894 193.061 232.105 193.904C232.316 194.958 234.213 196.855 235.267 197.065C236.32 197.487 235.899 196.012 236.11 195.169C236.32 194.326 236.32 192.429 236.32 192.429L232.737 189.057Z" fill="#FCD1C5"/>
<path d="M236.531 192.64L232.738 189.057C232.738 189.057 232.527 189.9 232.527 190.743C232.527 190.743 234.002 193.693 236.531 194.747C236.531 193.904 236.531 192.64 236.531 192.64Z" fill="#E2B1A6"/>
<path d="M232.527 189.267C232.527 189.267 233.791 193.483 237.164 193.904L236.11 189.267L233.159 188.424L232.527 189.267Z" fill="#4846A5"/>
<path d="M254.446 139.95C257.607 149.434 249.809 164.187 248.544 168.613C247.491 173.039 235.477 193.061 235.477 193.061C235.477 193.272 235.267 193.272 235.267 193.272C235.477 193.483 235.899 193.693 236.11 193.904C236.32 194.115 236.32 194.115 236.742 194.115C236.953 194.115 237.163 194.115 237.374 193.904C240.114 190.11 247.912 174.514 248.123 173.882C248.334 173.25 253.392 160.604 254.446 157.864C255.71 155.546 259.082 145.008 254.446 139.95Z" fill="#B09035"/>
<path d="M127.569 231.419C126.726 231.419 125.883 231.208 125.25 230.998L75.5113 202.124C74.879 201.702 74.4575 201.28 74.4575 200.648C74.4575 200.016 74.879 199.384 75.7221 198.751L125.04 170.51C126.515 169.667 128.833 169.456 130.098 170.299L179.837 198.962C180.469 199.384 180.891 199.805 180.891 200.437C180.891 201.07 180.469 201.702 179.626 202.334L130.519 230.787C129.466 231.208 128.412 231.419 127.569 231.419ZM125.672 230.154C126.726 230.787 128.623 230.576 129.887 229.944L178.994 201.491C179.626 201.07 179.837 200.648 179.837 200.227C179.837 199.805 179.416 199.594 179.205 199.384L129.676 170.931C128.623 170.299 126.726 170.51 125.461 171.142L76.1436 199.384C75.5113 199.805 75.3006 200.227 75.3006 200.648C75.3006 201.07 75.7221 201.28 75.9328 201.491L125.672 230.154Z" fill="#145F05"/>
<path d="M180.47 179.572V185.684L127.569 216.244L74.6685 185.684V179.572H180.47Z" fill="url(#paint30_linear_1120_4891)"/>
<path d="M127.569 210.132L74.6685 179.572L127.569 149.012L180.47 179.572L127.569 210.132Z" fill="#846C28"/>
<path d="M127.569 209.289L75.3007 179.151L74.6685 179.572L127.569 210.132L180.47 179.572L179.837 179.151L127.569 209.289Z" fill="#104C04"/>
<path d="M127.569 202.966L86.8921 179.572L127.569 156.178L168.245 179.572L127.569 202.966Z" fill="#0F054C"/>
<path opacity="0.5" d="M127.569 202.966L86.8921 179.572L127.569 156.178L168.245 179.572L127.569 202.966Z" fill="url(#paint31_linear_1120_4891)"/>
<path opacity="0.5" d="M127.569 150.066L168.245 173.671V179.572L127.569 156.178V150.066Z" fill="url(#paint32_linear_1120_4891)"/>
<path opacity="0.5" d="M127.569 156.178L86.8921 179.572V173.671L127.569 150.066V156.178Z" fill="url(#paint33_linear_1120_4891)"/>
<path opacity="0.5" d="M127.569 197.065L86.8921 173.671L127.569 150.066L168.245 173.671L127.569 197.065Z" fill="url(#paint34_linear_1120_4891)"/>
<path d="M127.569 182.944L111.34 173.671L127.569 164.187L143.797 173.671L127.569 182.944Z" fill="#95BA8D"/>
<path d="M127.569 165.03L142.954 174.092L143.797 173.671L127.569 164.187L111.34 173.671L111.973 174.092L127.569 165.03Z" fill="#AAC8A4"/>
<path opacity="0.5" d="M127.569 197.065V202.966L168.245 179.572V173.671L127.569 197.065Z" fill="url(#paint35_linear_1120_4891)"/>
<path opacity="0.5" d="M86.8921 173.671V179.572L127.569 202.966V197.065L86.8921 173.671Z" fill="url(#paint36_linear_1120_4891)"/>
<path d="M127.569 196.433L87.3136 173.25L86.8921 173.671L127.569 197.065L168.245 173.671L167.613 173.25L127.569 196.433Z" fill="#F6D67B"/>
<path d="M127.147 370.098C126.304 370.098 125.461 369.887 124.829 369.677L75.0899 341.013C74.4577 340.592 74.0361 340.17 74.0361 339.538C74.0361 338.906 74.4577 338.274 75.3007 337.641L124.408 309.189C125.883 308.346 128.201 308.135 129.466 308.978L179.205 337.641C179.837 338.063 180.259 338.484 180.259 339.117C180.259 339.749 179.837 340.381 178.994 341.013L129.887 369.466C129.255 369.887 128.201 370.098 127.147 370.098ZM125.461 368.834C126.515 369.466 128.412 369.255 129.677 368.623L178.783 340.17C179.416 339.749 179.626 339.327 179.626 338.906C179.626 338.484 179.205 338.274 178.994 338.063L129.255 309.61C128.201 308.978 126.304 309.189 125.04 309.821L75.933 338.063C75.3007 338.484 75.0899 338.906 75.0899 339.327C75.0899 339.749 75.5114 339.96 75.7222 340.17L125.461 368.834Z" fill="#145F05"/>
<path d="M180.048 318.251V324.363L127.148 354.924L74.2471 324.363V318.251H180.048Z" fill="url(#paint37_linear_1120_4891)"/>
<path d="M127.148 348.812L74.2471 318.251L127.148 287.691L180.048 318.251L127.148 348.812Z" fill="#846C28"/>
<path d="M127.148 347.968L74.8793 317.83L74.2471 318.251L127.148 348.811L180.048 318.251L179.416 317.83L127.148 347.968Z" fill="#104C04"/>
<path d="M127.147 341.646L86.4707 318.252L127.147 294.646L167.824 318.252L127.147 341.646Z" fill="#0F054C"/>
<path opacity="0.5" d="M127.147 341.646L86.4707 318.252L127.147 294.646L167.824 318.252L127.147 341.646Z" fill="url(#paint38_linear_1120_4891)"/>
<path opacity="0.5" d="M127.147 288.745L167.824 312.35V318.251L127.147 294.646V288.745Z" fill="url(#paint39_linear_1120_4891)"/>
<path opacity="0.5" d="M127.147 294.646L86.4707 318.251V312.35L127.147 288.745V294.646Z" fill="url(#paint40_linear_1120_4891)"/>
<path opacity="0.5" d="M127.147 335.744L86.4707 312.35L127.147 288.745L167.824 312.35L127.147 335.744Z" fill="url(#paint41_linear_1120_4891)"/>
<path d="M127.147 321.623L110.919 312.35L127.147 302.866L143.376 312.35L127.147 321.623Z" fill="#95BA8D"/>
<path d="M127.147 303.709L142.744 312.771L143.376 312.35L127.147 302.866L110.919 312.35L111.762 312.771L127.147 303.709Z" fill="#AAC8A4"/>
<path opacity="0.5" d="M127.147 335.744V341.646L167.824 318.251V312.35L127.147 335.744Z" fill="url(#paint42_linear_1120_4891)"/>
<path opacity="0.5" d="M86.4707 312.35V318.251L127.147 341.646V335.744L86.4707 312.35Z" fill="url(#paint43_linear_1120_4891)"/>
<path d="M127.147 335.112L87.103 311.929L86.4707 312.35L127.147 335.744L167.824 312.35L167.402 311.929L127.147 335.112Z" fill="#F6D67B"/>
<path d="M339.171 370.098C338.328 370.098 337.485 369.887 336.853 369.677L287.113 341.013C286.481 340.592 286.06 340.17 286.06 339.538C286.06 338.906 286.481 338.274 287.324 337.641L336.431 309.189C337.906 308.346 340.225 308.135 341.489 308.978L391.228 337.641C391.861 338.063 392.282 338.484 392.282 339.117C392.282 339.749 391.861 340.381 391.018 341.013L341.911 369.466C341.278 369.887 340.225 370.098 339.171 370.098ZM337.274 368.834C338.328 369.466 340.225 369.255 341.489 368.623L390.596 340.17C391.228 339.749 391.439 339.327 391.439 338.906C391.439 338.484 391.018 338.274 390.807 338.063L341.068 309.4C340.014 308.767 338.117 308.978 336.853 309.61L287.956 338.063C287.324 338.484 287.113 338.906 287.113 339.327C287.113 339.749 287.535 339.96 287.746 340.17L337.274 368.834Z" fill="#145F05"/>
<path d="M392.072 318.251V324.363L339.171 354.924L286.271 324.363V318.251H392.072Z" fill="url(#paint44_linear_1120_4891)"/>
<path d="M339.171 348.812L286.271 318.251L339.171 287.691L392.072 318.251L339.171 348.812Z" fill="#846C28"/>
<path d="M339.171 347.968L286.903 317.83L286.271 318.251L339.171 348.811L392.072 318.251L391.439 317.83L339.171 347.968Z" fill="#104C04"/>
<path d="M339.171 341.646L298.495 318.252L339.171 294.646L379.848 318.252L339.171 341.646Z" fill="#0F054C"/>
<path opacity="0.5" d="M339.171 341.646L298.495 318.252L339.171 294.646L379.848 318.252L339.171 341.646Z" fill="url(#paint45_linear_1120_4891)"/>
<path opacity="0.5" d="M339.171 288.745L379.848 312.35V318.251L339.171 294.646V288.745Z" fill="url(#paint46_linear_1120_4891)"/>
<path opacity="0.5" d="M339.171 294.646L298.495 318.251V312.35L339.171 288.745V294.646Z" fill="url(#paint47_linear_1120_4891)"/>
<path opacity="0.5" d="M339.171 335.744L298.495 312.35L339.171 288.745L379.848 312.35L339.171 335.744Z" fill="url(#paint48_linear_1120_4891)"/>
<path d="M339.171 321.623L322.943 312.35L339.171 302.866L355.4 312.35L339.171 321.623Z" fill="#95BA8D"/>
<path d="M339.171 303.709L354.768 312.771L355.4 312.35L339.171 302.866L322.943 312.35L323.786 312.771L339.171 303.709Z" fill="#AAC8A4"/>
<path opacity="0.5" d="M339.171 335.744V341.646L379.848 318.251V312.35L339.171 335.744Z" fill="url(#paint49_linear_1120_4891)"/>
<path opacity="0.5" d="M298.495 312.35V318.251L339.171 341.646V335.744L298.495 312.35Z" fill="url(#paint50_linear_1120_4891)"/>
<path d="M339.171 335.112L299.127 311.929L298.495 312.35L339.171 335.744L379.848 312.35L379.215 311.929L339.171 335.112Z" fill="#F6D67B"/>
<path opacity="0.502" d="M83.0985 26.5612C119.771 15.6018 141.479 56.9106 120.192 96.9548C102.067 130.887 58.0182 155.335 46.4264 119.717C39.6821 98.8516 45.1619 47.4264 79.7264 28.2473C70.453 33.0948 63.4979 39.8391 56.9644 51.0093C69.6099 66.6055 70.6637 67.87 81.834 80.7263C94.901 49.9555 95.9548 47.4264 105.65 26.5612C97.8517 23.8214 91.1074 23.8214 83.0985 26.5612ZM80.5694 27.615C80.3587 27.8258 79.9371 27.8258 79.7264 28.0366C80.1479 28.0366 80.3587 27.8258 80.5694 27.615ZM82.4662 26.9828C82.677 26.9828 82.8878 26.772 83.0985 26.772C82.8878 26.772 82.677 26.772 82.4662 26.9828Z" fill="#C6A23C"/>
<path d="M21.3462 65.7625C23.4538 63.4442 25.7721 61.3366 28.3012 59.229V165.662C25.7721 167.77 23.6645 170.088 21.3462 172.196V65.7625Z" fill="#C6A23C"/>
<path d="M10.3872 117.187C12.0733 114.869 13.7594 112.551 15.4454 110.232V179.361C13.5486 181.68 11.8625 183.998 10.3872 186.316V117.187Z" fill="#C6A23C"/>
<path opacity="0.502" d="M0.691895 197.487L0.902654 197.698L1.11341 190.743L0.691895 190.321V197.487ZM0.691895 218.141V111.497C0.691895 110.865 0.691895 110.233 0.691895 109.39C0.902654 104.542 1.74569 99.6948 3.221 95.0581V201.491C1.74569 206.128 0.902654 210.976 0.691895 215.823C0.691895 216.666 0.691895 217.509 0.691895 218.141Z" fill="#C6A23C"/>
<path d="M0.691895 197.487L0.902654 197.697V190.742L0.691895 190.321V197.487Z" fill="#C6A23C"/>
<path d="M81.6235 27.1936C93.426 22.1353 102.067 25.2967 105.439 26.3505C91.7399 56.2783 90.4754 59.4397 81.6235 80.5156C68.1349 64.9194 66.2381 62.6011 56.7539 50.7986C59.4938 46.5834 67.5026 33.3056 81.6235 27.1936Z" fill="#C6A23C"/>
<path opacity="0.502" d="M166.138 289.167C155.178 292.329 148.223 285.795 145.483 283.688C125.461 266.616 107.758 245.962 87.5247 228.89C81.6234 223.832 77.8297 225.94 75.9329 226.572C38.207 241.536 38.207 241.536 32.3058 232.473C21.3463 212.873 20.9248 211.397 15.6558 199.173C14.3912 196.433 10.5976 192.218 8.70074 192.429C0.270376 194.747 1.32417 196.644 0.691895 197.487V190.321C10.5976 186.528 11.6514 186.106 15.6558 195.38C34.2026 234.792 37.5747 233.949 41.7899 232.895C81.4126 217.088 80.9911 218.142 90.8968 228.68C108.39 246.805 143.587 282.212 154.546 285.163C157.918 285.585 163.187 285.163 166.349 284.32C204.496 271.464 219.671 263.455 257.186 247.437L260.558 252.917C246.648 259.029 204.917 275.468 166.349 287.481L166.138 289.167ZM285.638 332.162V225.729C273.836 226.361 261.822 226.783 249.598 226.572C111.34 225.518 0.691895 174.093 0.691895 111.498V217.931C0.691895 280.526 111.34 331.741 249.598 333.005C261.822 333.216 273.836 332.795 285.638 332.162Z" fill="#C6A23C"/>
<path d="M166.138 289.168C156.232 291.697 146.959 294.015 89 231.63C81.6234 224.254 81.6234 224.254 43.8975 239.218C39.6823 240.272 33.1488 241.747 15.445 199.384C9.9653 186.739 0.691895 197.277 0.691895 197.277V190.111C3.85328 188.425 4.06404 188.214 8.70074 186.949C9.54378 186.739 10.3868 186.739 11.2299 187.16C12.4944 187.793 13.759 189.268 15.8666 193.905C26.1938 215.823 26.1938 215.823 33.5703 227.626C37.9963 234.16 37.9963 234.16 73.193 220.039C75.5114 219.406 80.5696 218.142 88.1569 224.043C109.444 241.115 126.726 262.19 147.802 279.473C155.6 285.163 160.447 288.535 257.186 246.805L260.558 252.285C246.859 258.818 204.707 277.154 166.138 289.168Z" fill="#C6A23C"/>
<defs>
<linearGradient id="paint0_linear_1120_4891" x1="260.398" y1="198.233" x2="395.879" y2="198.233" gradientUnits="userSpaceOnUse">
<stop stop-color="#082602"/>
<stop offset="0.1166" stop-color="#0F2A04"/>
<stop offset="0.2871" stop-color="#23370A"/>
<stop offset="0.4909" stop-color="#434B14"/>
<stop offset="0.7202" stop-color="#706721"/>
<stop offset="0.968" stop-color="#A88B33"/>
<stop offset="1" stop-color="#B09035"/>
</linearGradient>
<linearGradient id="paint1_linear_1120_4891" x1="298.739" y1="179.925" x2="380.059" y2="179.925" gradientUnits="userSpaceOnUse">
<stop stop-color="#42E8E0"/>
<stop offset="0.1507" stop-color="#43E3E0"/>
<stop offset="0.3285" stop-color="#45D5DF"/>
<stop offset="0.5199" stop-color="#49BDDD"/>
<stop offset="0.7209" stop-color="#4E9CDB"/>
<stop offset="0.9274" stop-color="#5472D8"/>
<stop offset="1" stop-color="#5761D7"/>
</linearGradient>
<linearGradient id="paint2_linear_1120_4891" x1="339.399" y1="165.228" x2="380.059" y2="165.228" gradientUnits="userSpaceOnUse">
<stop stop-color="#42E8E0"/>
<stop offset="0.1507" stop-color="#43E3E0"/>
<stop offset="0.3285" stop-color="#45D5DF"/>
<stop offset="0.5199" stop-color="#49BDDD"/>
<stop offset="0.7209" stop-color="#4E9CDB"/>
<stop offset="0.9274" stop-color="#5472D8"/>
<stop offset="1" stop-color="#5761D7"/>
</linearGradient>
<linearGradient id="paint3_linear_1120_4891" x1="298.739" y1="165.228" x2="339.4" y2="165.228" gradientUnits="userSpaceOnUse">
<stop stop-color="#42E8E0"/>
<stop offset="0.1507" stop-color="#43E3E0"/>
<stop offset="0.3285" stop-color="#45D5DF"/>
<stop offset="0.5199" stop-color="#49BDDD"/>
<stop offset="0.7209" stop-color="#4E9CDB"/>
<stop offset="0.9274" stop-color="#5472D8"/>
<stop offset="1" stop-color="#5761D7"/>
</linearGradient>
<linearGradient id="paint4_linear_1120_4891" x1="298.739" y1="174.006" x2="380.059" y2="174.006" gradientUnits="userSpaceOnUse">
<stop stop-color="#DCB442"/>
<stop offset="0.119" stop-color="#D7B141"/>
<stop offset="0.2595" stop-color="#C9AA3C"/>
<stop offset="0.4108" stop-color="#B19E35"/>
<stop offset="0.5697" stop-color="#908D2B"/>
<stop offset="0.7346" stop-color="#65771E"/>
<stop offset="0.9021" stop-color="#325D0E"/>
<stop offset="1" stop-color="#104C04"/>
</linearGradient>
<linearGradient id="paint5_linear_1120_4891" x1="339.4" y1="188.703" x2="380.059" y2="188.703" gradientUnits="userSpaceOnUse">
<stop stop-color="#DCB442"/>
<stop offset="0.119" stop-color="#D7B141"/>
<stop offset="0.2595" stop-color="#C9AA3C"/>
<stop offset="0.4108" stop-color="#B19E35"/>
<stop offset="0.5697" stop-color="#908D2B"/>
<stop offset="0.7346" stop-color="#65771E"/>
<stop offset="0.9021" stop-color="#325D0E"/>
<stop offset="1" stop-color="#104C04"/>
</linearGradient>
<linearGradient id="paint6_linear_1120_4891" x1="298.739" y1="188.703" x2="339.4" y2="188.703" gradientUnits="userSpaceOnUse">
<stop stop-color="#DCB442"/>
<stop offset="0.119" stop-color="#D7B141"/>
<stop offset="0.2595" stop-color="#C9AA3C"/>
<stop offset="0.4108" stop-color="#B19E35"/>
<stop offset="0.5697" stop-color="#908D2B"/>
<stop offset="0.7346" stop-color="#65771E"/>
<stop offset="0.9021" stop-color="#325D0E"/>
<stop offset="1" stop-color="#104C04"/>
</linearGradient>
<linearGradient id="paint7_linear_1120_4891" x1="136.241" y1="390.412" x2="329.593" y2="390.412" gradientUnits="userSpaceOnUse">
<stop stop-color="#166805"/>
<stop offset="0.136" stop-color="#487D14"/>
<stop offset="0.2963" stop-color="#7B9324"/>
<stop offset="0.4543" stop-color="#A6A531"/>
<stop offset="0.6066" stop-color="#C7B43C"/>
<stop offset="0.7515" stop-color="#DFBE43"/>
<stop offset="0.886" stop-color="#EDC447"/>
<stop offset="1" stop-color="#F2C649"/>
</linearGradient>
<linearGradient id="paint8_linear_1120_4891" x1="136.241" y1="375.537" x2="329.593" y2="375.537" gradientUnits="userSpaceOnUse">
<stop stop-color="#166805"/>
<stop offset="0.136" stop-color="#487D14"/>
<stop offset="0.2963" stop-color="#7B9324"/>
<stop offset="0.4543" stop-color="#A6A531"/>
<stop offset="0.6066" stop-color="#C7B43C"/>
<stop offset="0.7515" stop-color="#DFBE43"/>
<stop offset="0.886" stop-color="#EDC447"/>
<stop offset="1" stop-color="#F2C649"/>
</linearGradient>
<linearGradient id="paint9_linear_1120_4891" x1="136.241" y1="360.664" x2="329.593" y2="360.664" gradientUnits="userSpaceOnUse">
<stop stop-color="#166805"/>
<stop offset="0.136" stop-color="#487D14"/>
<stop offset="0.2963" stop-color="#7B9324"/>
<stop offset="0.4543" stop-color="#A6A531"/>
<stop offset="0.6066" stop-color="#C7B43C"/>
<stop offset="0.7515" stop-color="#DFBE43"/>
<stop offset="0.886" stop-color="#EDC447"/>
<stop offset="1" stop-color="#F2C649"/>
</linearGradient>
<linearGradient id="paint10_linear_1120_4891" x1="136.241" y1="345.79" x2="329.593" y2="345.79" gradientUnits="userSpaceOnUse">
<stop stop-color="#166805"/>
<stop offset="0.136" stop-color="#487D14"/>
<stop offset="0.2963" stop-color="#7B9324"/>
<stop offset="0.4543" stop-color="#A6A531"/>
<stop offset="0.6066" stop-color="#C7B43C"/>
<stop offset="0.7515" stop-color="#DFBE43"/>
<stop offset="0.886" stop-color="#EDC447"/>
<stop offset="1" stop-color="#F2C649"/>
</linearGradient>
<linearGradient id="paint11_linear_1120_4891" x1="136.241" y1="368.101" x2="329.593" y2="368.101" gradientUnits="userSpaceOnUse">
<stop stop-color="#166805"/>
<stop offset="0.136" stop-color="#487D14"/>
<stop offset="0.2963" stop-color="#7B9324"/>
<stop offset="0.4543" stop-color="#A6A531"/>
<stop offset="0.6066" stop-color="#C7B43C"/>
<stop offset="0.7515" stop-color="#DFBE43"/>
<stop offset="0.886" stop-color="#EDC447"/>
<stop offset="1" stop-color="#F2C649"/>
</linearGradient>
<linearGradient id="paint12_linear_1120_4891" x1="136.241" y1="323.631" x2="329.593" y2="323.631" gradientUnits="userSpaceOnUse">
<stop stop-color="#166805"/>
<stop offset="0.136" stop-color="#487D14"/>
<stop offset="0.2963" stop-color="#7B9324"/>
<stop offset="0.4543" stop-color="#A6A531"/>
<stop offset="0.6066" stop-color="#C7B43C"/>
<stop offset="0.7515" stop-color="#DFBE43"/>
<stop offset="0.886" stop-color="#EDC447"/>
<stop offset="1" stop-color="#F2C649"/>
</linearGradient>
<linearGradient id="paint13_linear_1120_4891" x1="136.241" y1="309.542" x2="329.593" y2="309.542" gradientUnits="userSpaceOnUse">
<stop stop-color="#166805"/>
<stop offset="0.136" stop-color="#487D14"/>
<stop offset="0.2963" stop-color="#7B9324"/>
<stop offset="0.4543" stop-color="#A6A531"/>
<stop offset="0.6066" stop-color="#C7B43C"/>
<stop offset="0.7515" stop-color="#DFBE43"/>
<stop offset="0.886" stop-color="#EDC447"/>
<stop offset="1" stop-color="#F2C649"/>
</linearGradient>
<linearGradient id="paint14_linear_1120_4891" x1="136.241" y1="295.454" x2="329.593" y2="295.454" gradientUnits="userSpaceOnUse">
<stop stop-color="#166805"/>
<stop offset="0.136" stop-color="#487D14"/>
<stop offset="0.2963" stop-color="#7B9324"/>
<stop offset="0.4543" stop-color="#A6A531"/>
<stop offset="0.6066" stop-color="#C7B43C"/>
<stop offset="0.7515" stop-color="#DFBE43"/>
<stop offset="0.886" stop-color="#EDC447"/>
<stop offset="1" stop-color="#F2C649"/>
</linearGradient>
<linearGradient id="paint15_linear_1120_4891" x1="136.241" y1="281.365" x2="329.593" y2="281.365" gradientUnits="userSpaceOnUse">
<stop stop-color="#166805"/>
<stop offset="0.136" stop-color="#487D14"/>
<stop offset="0.2963" stop-color="#7B9324"/>
<stop offset="0.4543" stop-color="#A6A531"/>
<stop offset="0.6066" stop-color="#C7B43C"/>
<stop offset="0.7515" stop-color="#DFBE43"/>
<stop offset="0.886" stop-color="#EDC447"/>
<stop offset="1" stop-color="#F2C649"/>
</linearGradient>
<linearGradient id="paint16_linear_1120_4891" x1="136.241" y1="302.498" x2="329.593" y2="302.498" gradientUnits="userSpaceOnUse">
<stop stop-color="#166805"/>
<stop offset="0.136" stop-color="#487D14"/>
<stop offset="0.2963" stop-color="#7B9324"/>
<stop offset="0.4543" stop-color="#A6A531"/>
<stop offset="0.6066" stop-color="#C7B43C"/>
<stop offset="0.7515" stop-color="#DFBE43"/>
<stop offset="0.886" stop-color="#EDC447"/>
<stop offset="1" stop-color="#F2C649"/>
</linearGradient>
<linearGradient id="paint17_linear_1120_4891" x1="136.241" y1="267.349" x2="329.593" y2="267.349" gradientUnits="userSpaceOnUse">
<stop stop-color="#166805"/>
<stop offset="0.136" stop-color="#487D14"/>
<stop offset="0.2963" stop-color="#7B9324"/>
<stop offset="0.4543" stop-color="#A6A531"/>
<stop offset="0.6066" stop-color="#C7B43C"/>
<stop offset="0.7515" stop-color="#DFBE43"/>
<stop offset="0.886" stop-color="#EDC447"/>
<stop offset="1" stop-color="#F2C649"/>
</linearGradient>
<linearGradient id="paint18_linear_1120_4891" x1="136.241" y1="252.476" x2="329.593" y2="252.476" gradientUnits="userSpaceOnUse">
<stop stop-color="#166805"/>
<stop offset="0.136" stop-color="#487D14"/>
<stop offset="0.2963" stop-color="#7B9324"/>
<stop offset="0.4543" stop-color="#A6A531"/>
<stop offset="0.6066" stop-color="#C7B43C"/>
<stop offset="0.7515" stop-color="#DFBE43"/>
<stop offset="0.886" stop-color="#EDC447"/>
<stop offset="1" stop-color="#F2C649"/>
</linearGradient>
<linearGradient id="paint19_linear_1120_4891" x1="136.241" y1="237.601" x2="329.593" y2="237.601" gradientUnits="userSpaceOnUse">
<stop stop-color="#166805"/>
<stop offset="0.136" stop-color="#487D14"/>
<stop offset="0.2963" stop-color="#7B9324"/>
<stop offset="0.4543" stop-color="#A6A531"/>
<stop offset="0.6066" stop-color="#C7B43C"/>
<stop offset="0.7515" stop-color="#DFBE43"/>
<stop offset="0.886" stop-color="#EDC447"/>
<stop offset="1" stop-color="#F2C649"/>
</linearGradient>
<linearGradient id="paint20_linear_1120_4891" x1="136.241" y1="222.727" x2="329.593" y2="222.727" gradientUnits="userSpaceOnUse">
<stop stop-color="#166805"/>
<stop offset="0.136" stop-color="#487D14"/>
<stop offset="0.2963" stop-color="#7B9324"/>
<stop offset="0.4543" stop-color="#A6A531"/>
<stop offset="0.6066" stop-color="#C7B43C"/>
<stop offset="0.7515" stop-color="#DFBE43"/>
<stop offset="0.886" stop-color="#EDC447"/>
<stop offset="1" stop-color="#F2C649"/>
</linearGradient>
<linearGradient id="paint21_linear_1120_4891" x1="136.241" y1="245.038" x2="329.593" y2="245.038" gradientUnits="userSpaceOnUse">
<stop stop-color="#166805"/>
<stop offset="0.136" stop-color="#487D14"/>
<stop offset="0.2963" stop-color="#7B9324"/>
<stop offset="0.4543" stop-color="#A6A531"/>
<stop offset="0.6066" stop-color="#C7B43C"/>
<stop offset="0.7515" stop-color="#DFBE43"/>
<stop offset="0.886" stop-color="#EDC447"/>
<stop offset="1" stop-color="#F2C649"/>
</linearGradient>
<linearGradient id="paint22_linear_1120_4891" x1="136.241" y1="222.727" x2="329.593" y2="222.727" gradientUnits="userSpaceOnUse">
<stop stop-color="#166805"/>
<stop offset="0.136" stop-color="#487D14"/>
<stop offset="0.2963" stop-color="#7B9324"/>
<stop offset="0.4543" stop-color="#A6A531"/>
<stop offset="0.6066" stop-color="#C7B43C"/>
<stop offset="0.7515" stop-color="#DFBE43"/>
<stop offset="0.886" stop-color="#EDC447"/>
<stop offset="1" stop-color="#F2C649"/>
</linearGradient>
<linearGradient id="paint23_linear_1120_4891" x1="136.242" y1="249.535" x2="329.592" y2="249.535" gradientUnits="userSpaceOnUse">
<stop stop-color="#166805"/>
<stop offset="0.136" stop-color="#487D14"/>
<stop offset="0.2963" stop-color="#7B9324"/>
<stop offset="0.4543" stop-color="#A6A531"/>
<stop offset="0.6066" stop-color="#C7B43C"/>
<stop offset="0.7515" stop-color="#DFBE43"/>
<stop offset="0.886" stop-color="#EDC447"/>
<stop offset="1" stop-color="#F2C649"/>
</linearGradient>
<linearGradient id="paint24_linear_1120_4891" x1="215.424" y1="183.622" x2="223.795" y2="183.622" gradientUnits="userSpaceOnUse">
<stop stop-color="#5761D7"/>
<stop offset="0.0725775" stop-color="#5472D8"/>
<stop offset="0.2791" stop-color="#4E9CDB"/>
<stop offset="0.4801" stop-color="#49BDDD"/>
<stop offset="0.6715" stop-color="#45D5DF"/>
<stop offset="0.8493" stop-color="#43E3E0"/>
<stop offset="1" stop-color="#42E8E0"/>
</linearGradient>
<linearGradient id="paint25_linear_1120_4891" x1="219.684" y1="165.227" x2="240.644" y2="165.227" gradientUnits="userSpaceOnUse">
<stop stop-color="#5761D7"/>
<stop offset="0.0725775" stop-color="#5472D8"/>
<stop offset="0.2791" stop-color="#4E9CDB"/>
<stop offset="0.4801" stop-color="#49BDDD"/>
<stop offset="0.6715" stop-color="#45D5DF"/>
<stop offset="0.8493" stop-color="#43E3E0"/>
<stop offset="1" stop-color="#42E8E0"/>
</linearGradient>
<linearGradient id="paint26_linear_1120_4891" x1="259.963" y1="111.152" x2="261.894" y2="110.983" gradientUnits="userSpaceOnUse">
<stop stop-color="#5761D7"/>
<stop offset="0.0725775" stop-color="#5472D8"/>
<stop offset="0.2791" stop-color="#4E9CDB"/>
<stop offset="0.4801" stop-color="#49BDDD"/>
<stop offset="0.6715" stop-color="#45D5DF"/>
<stop offset="0.8493" stop-color="#43E3E0"/>
<stop offset="1" stop-color="#42E8E0"/>
</linearGradient>
<linearGradient id="paint27_linear_1120_4891" x1="222.234" y1="214.801" x2="248.883" y2="212.465" gradientUnits="userSpaceOnUse">
<stop stop-color="#5761D7"/>
<stop offset="0.0725775" stop-color="#5472D8"/>
<stop offset="0.2791" stop-color="#4E9CDB"/>
<stop offset="0.4801" stop-color="#49BDDD"/>
<stop offset="0.6715" stop-color="#45D5DF"/>
<stop offset="0.8493" stop-color="#43E3E0"/>
<stop offset="1" stop-color="#42E8E0"/>
</linearGradient>
<linearGradient id="paint28_linear_1120_4891" x1="236.355" y1="203.853" x2="239.747" y2="203.556" gradientUnits="userSpaceOnUse">
<stop stop-color="#5761D7"/>
<stop offset="0.0725775" stop-color="#5472D8"/>
<stop offset="0.2791" stop-color="#4E9CDB"/>
<stop offset="0.4801" stop-color="#49BDDD"/>
<stop offset="0.6715" stop-color="#45D5DF"/>
<stop offset="0.8493" stop-color="#43E3E0"/>
<stop offset="1" stop-color="#42E8E0"/>
</linearGradient>
<linearGradient id="paint29_linear_1120_4891" x1="229.376" y1="197.982" x2="232.76" y2="197.685" gradientUnits="userSpaceOnUse">
<stop stop-color="#5761D7"/>
<stop offset="0.0725775" stop-color="#5472D8"/>
<stop offset="0.2791" stop-color="#4E9CDB"/>
<stop offset="0.4801" stop-color="#49BDDD"/>
<stop offset="0.6715" stop-color="#45D5DF"/>
<stop offset="0.8493" stop-color="#43E3E0"/>
<stop offset="1" stop-color="#42E8E0"/>
</linearGradient>
<linearGradient id="paint30_linear_1120_4891" x1="48.5042" y1="197.864" x2="183.985" y2="197.864" gradientUnits="userSpaceOnUse">
<stop stop-color="#082602"/>
<stop offset="0.1166" stop-color="#0F2A04"/>
<stop offset="0.2871" stop-color="#23370A"/>
<stop offset="0.4909" stop-color="#434B14"/>
<stop offset="0.7202" stop-color="#706721"/>
<stop offset="0.968" stop-color="#A88B33"/>
<stop offset="1" stop-color="#B09035"/>
</linearGradient>
<linearGradient id="paint31_linear_1120_4891" x1="86.8453" y1="179.556" x2="168.164" y2="179.556" gradientUnits="userSpaceOnUse">
<stop stop-color="#42E8E0"/>
<stop offset="0.1507" stop-color="#43E3E0"/>
<stop offset="0.3285" stop-color="#45D5DF"/>
<stop offset="0.5199" stop-color="#49BDDD"/>
<stop offset="0.7209" stop-color="#4E9CDB"/>
<stop offset="0.9274" stop-color="#5472D8"/>
<stop offset="1" stop-color="#5761D7"/>
</linearGradient>
<linearGradient id="paint32_linear_1120_4891" x1="127.505" y1="164.859" x2="168.165" y2="164.859" gradientUnits="userSpaceOnUse">
<stop stop-color="#42E8E0"/>
<stop offset="0.1507" stop-color="#43E3E0"/>
<stop offset="0.3285" stop-color="#45D5DF"/>
<stop offset="0.5199" stop-color="#49BDDD"/>
<stop offset="0.7209" stop-color="#4E9CDB"/>
<stop offset="0.9274" stop-color="#5472D8"/>
<stop offset="1" stop-color="#5761D7"/>
</linearGradient>
<linearGradient id="paint33_linear_1120_4891" x1="86.8453" y1="164.859" x2="127.505" y2="164.859" gradientUnits="userSpaceOnUse">
<stop stop-color="#42E8E0"/>
<stop offset="0.1507" stop-color="#43E3E0"/>
<stop offset="0.3285" stop-color="#45D5DF"/>
<stop offset="0.5199" stop-color="#49BDDD"/>
<stop offset="0.7209" stop-color="#4E9CDB"/>
<stop offset="0.9274" stop-color="#5472D8"/>
<stop offset="1" stop-color="#5761D7"/>
</linearGradient>
<linearGradient id="paint34_linear_1120_4891" x1="86.8453" y1="173.637" x2="168.164" y2="173.637" gradientUnits="userSpaceOnUse">
<stop stop-color="#DCB442"/>
<stop offset="0.119" stop-color="#D7B141"/>
<stop offset="0.2595" stop-color="#C9AA3C"/>
<stop offset="0.4108" stop-color="#B19E35"/>
<stop offset="0.5697" stop-color="#908D2B"/>
<stop offset="0.7346" stop-color="#65771E"/>
<stop offset="0.9021" stop-color="#325D0E"/>
<stop offset="1" stop-color="#104C04"/>
</linearGradient>
<linearGradient id="paint35_linear_1120_4891" x1="127.506" y1="188.334" x2="168.165" y2="188.334" gradientUnits="userSpaceOnUse">
<stop stop-color="#DCB442"/>
<stop offset="0.119" stop-color="#D7B141"/>
<stop offset="0.2595" stop-color="#C9AA3C"/>
<stop offset="0.4108" stop-color="#B19E35"/>
<stop offset="0.5697" stop-color="#908D2B"/>
<stop offset="0.7346" stop-color="#65771E"/>
<stop offset="0.9021" stop-color="#325D0E"/>
<stop offset="1" stop-color="#104C04"/>
</linearGradient>
<linearGradient id="paint36_linear_1120_4891" x1="86.8453" y1="188.334" x2="127.505" y2="188.334" gradientUnits="userSpaceOnUse">
<stop stop-color="#DCB442"/>
<stop offset="0.119" stop-color="#D7B141"/>
<stop offset="0.2595" stop-color="#C9AA3C"/>
<stop offset="0.4108" stop-color="#B19E35"/>
<stop offset="0.5697" stop-color="#908D2B"/>
<stop offset="0.7346" stop-color="#65771E"/>
<stop offset="0.9021" stop-color="#325D0E"/>
<stop offset="1" stop-color="#104C04"/>
</linearGradient>
<linearGradient id="paint37_linear_1120_4891" x1="48.2095" y1="336.522" x2="183.69" y2="336.522" gradientUnits="userSpaceOnUse">
<stop stop-color="#082602"/>
<stop offset="0.1166" stop-color="#0F2A04"/>
<stop offset="0.2871" stop-color="#23370A"/>
<stop offset="0.4909" stop-color="#434B14"/>
<stop offset="0.7202" stop-color="#706721"/>
<stop offset="0.968" stop-color="#A88B33"/>
<stop offset="1" stop-color="#B09035"/>
</linearGradient>
<linearGradient id="paint38_linear_1120_4891" x1="86.5506" y1="318.214" x2="167.87" y2="318.214" gradientUnits="userSpaceOnUse">
<stop stop-color="#42E8E0"/>
<stop offset="0.1507" stop-color="#43E3E0"/>
<stop offset="0.3285" stop-color="#45D5DF"/>
<stop offset="0.5199" stop-color="#49BDDD"/>
<stop offset="0.7209" stop-color="#4E9CDB"/>
<stop offset="0.9274" stop-color="#5472D8"/>
<stop offset="1" stop-color="#5761D7"/>
</linearGradient>
<linearGradient id="paint39_linear_1120_4891" x1="127.21" y1="303.517" x2="167.87" y2="303.517" gradientUnits="userSpaceOnUse">
<stop stop-color="#42E8E0"/>
<stop offset="0.1507" stop-color="#43E3E0"/>
<stop offset="0.3285" stop-color="#45D5DF"/>
<stop offset="0.5199" stop-color="#49BDDD"/>
<stop offset="0.7209" stop-color="#4E9CDB"/>
<stop offset="0.9274" stop-color="#5472D8"/>
<stop offset="1" stop-color="#5761D7"/>
</linearGradient>
<linearGradient id="paint40_linear_1120_4891" x1="86.5506" y1="303.517" x2="127.211" y2="303.517" gradientUnits="userSpaceOnUse">
<stop stop-color="#42E8E0"/>
<stop offset="0.1507" stop-color="#43E3E0"/>
<stop offset="0.3285" stop-color="#45D5DF"/>
<stop offset="0.5199" stop-color="#49BDDD"/>
<stop offset="0.7209" stop-color="#4E9CDB"/>
<stop offset="0.9274" stop-color="#5472D8"/>
<stop offset="1" stop-color="#5761D7"/>
</linearGradient>
<linearGradient id="paint41_linear_1120_4891" x1="86.5506" y1="312.294" x2="167.87" y2="312.294" gradientUnits="userSpaceOnUse">
<stop stop-color="#DCB442"/>
<stop offset="0.119" stop-color="#D7B141"/>
<stop offset="0.2595" stop-color="#C9AA3C"/>
<stop offset="0.4108" stop-color="#B19E35"/>
<stop offset="0.5697" stop-color="#908D2B"/>
<stop offset="0.7346" stop-color="#65771E"/>
<stop offset="0.9021" stop-color="#325D0E"/>
<stop offset="1" stop-color="#104C04"/>
</linearGradient>
<linearGradient id="paint42_linear_1120_4891" x1="127.211" y1="326.992" x2="167.87" y2="326.992" gradientUnits="userSpaceOnUse">
<stop stop-color="#DCB442"/>
<stop offset="0.119" stop-color="#D7B141"/>
<stop offset="0.2595" stop-color="#C9AA3C"/>
<stop offset="0.4108" stop-color="#B19E35"/>
<stop offset="0.5697" stop-color="#908D2B"/>
<stop offset="0.7346" stop-color="#65771E"/>
<stop offset="0.9021" stop-color="#325D0E"/>
<stop offset="1" stop-color="#104C04"/>
</linearGradient>
<linearGradient id="paint43_linear_1120_4891" x1="86.5506" y1="326.991" x2="127.211" y2="326.991" gradientUnits="userSpaceOnUse">
<stop stop-color="#DCB442"/>
<stop offset="0.119" stop-color="#D7B141"/>
<stop offset="0.2595" stop-color="#C9AA3C"/>
<stop offset="0.4108" stop-color="#B19E35"/>
<stop offset="0.5697" stop-color="#908D2B"/>
<stop offset="0.7346" stop-color="#65771E"/>
<stop offset="0.9021" stop-color="#325D0E"/>
<stop offset="1" stop-color="#104C04"/>
</linearGradient>
<linearGradient id="paint44_linear_1120_4891" x1="260.186" y1="336.522" x2="395.667" y2="336.522" gradientUnits="userSpaceOnUse">
<stop stop-color="#082602"/>
<stop offset="0.1166" stop-color="#0F2A04"/>
<stop offset="0.2871" stop-color="#23370A"/>
<stop offset="0.4909" stop-color="#434B14"/>
<stop offset="0.7202" stop-color="#706721"/>
<stop offset="0.968" stop-color="#A88B33"/>
<stop offset="1" stop-color="#B09035"/>
</linearGradient>
<linearGradient id="paint45_linear_1120_4891" x1="298.528" y1="318.214" x2="379.847" y2="318.214" gradientUnits="userSpaceOnUse">
<stop stop-color="#42E8E0"/>
<stop offset="0.1507" stop-color="#43E3E0"/>
<stop offset="0.3285" stop-color="#45D5DF"/>
<stop offset="0.5199" stop-color="#49BDDD"/>
<stop offset="0.7209" stop-color="#4E9CDB"/>
<stop offset="0.9274" stop-color="#5472D8"/>
<stop offset="1" stop-color="#5761D7"/>
</linearGradient>
<linearGradient id="paint46_linear_1120_4891" x1="339.187" y1="303.517" x2="379.847" y2="303.517" gradientUnits="userSpaceOnUse">
<stop stop-color="#42E8E0"/>
<stop offset="0.1507" stop-color="#43E3E0"/>
<stop offset="0.3285" stop-color="#45D5DF"/>
<stop offset="0.5199" stop-color="#49BDDD"/>
<stop offset="0.7209" stop-color="#4E9CDB"/>
<stop offset="0.9274" stop-color="#5472D8"/>
<stop offset="1" stop-color="#5761D7"/>
</linearGradient>
<linearGradient id="paint47_linear_1120_4891" x1="298.528" y1="303.517" x2="339.188" y2="303.517" gradientUnits="userSpaceOnUse">
<stop stop-color="#42E8E0"/>
<stop offset="0.1507" stop-color="#43E3E0"/>
<stop offset="0.3285" stop-color="#45D5DF"/>
<stop offset="0.5199" stop-color="#49BDDD"/>
<stop offset="0.7209" stop-color="#4E9CDB"/>
<stop offset="0.9274" stop-color="#5472D8"/>
<stop offset="1" stop-color="#5761D7"/>
</linearGradient>
<linearGradient id="paint48_linear_1120_4891" x1="298.528" y1="312.294" x2="379.847" y2="312.294" gradientUnits="userSpaceOnUse">
<stop stop-color="#DCB442"/>
<stop offset="0.119" stop-color="#D7B141"/>
<stop offset="0.2595" stop-color="#C9AA3C"/>
<stop offset="0.4108" stop-color="#B19E35"/>
<stop offset="0.5697" stop-color="#908D2B"/>
<stop offset="0.7346" stop-color="#65771E"/>
<stop offset="0.9021" stop-color="#325D0E"/>
<stop offset="1" stop-color="#104C04"/>
</linearGradient>
<linearGradient id="paint49_linear_1120_4891" x1="339.188" y1="326.992" x2="379.847" y2="326.992" gradientUnits="userSpaceOnUse">
<stop stop-color="#DCB442"/>
<stop offset="0.119" stop-color="#D7B141"/>
<stop offset="0.2595" stop-color="#C9AA3C"/>
<stop offset="0.4108" stop-color="#B19E35"/>
<stop offset="0.5697" stop-color="#908D2B"/>
<stop offset="0.7346" stop-color="#65771E"/>
<stop offset="0.9021" stop-color="#325D0E"/>
<stop offset="1" stop-color="#104C04"/>
</linearGradient>
<linearGradient id="paint50_linear_1120_4891" x1="298.528" y1="326.991" x2="339.188" y2="326.991" gradientUnits="userSpaceOnUse">
<stop stop-color="#DCB442"/>
<stop offset="0.119" stop-color="#D7B141"/>
<stop offset="0.2595" stop-color="#C9AA3C"/>
<stop offset="0.4108" stop-color="#B19E35"/>
<stop offset="0.5697" stop-color="#908D2B"/>
<stop offset="0.7346" stop-color="#65771E"/>
<stop offset="0.9021" stop-color="#325D0E"/>
<stop offset="1" stop-color="#104C04"/>
</linearGradient>
</defs>
</svg>
