<svg width="286" height="287" viewBox="0 0 286 287" fill="none" xmlns="http://www.w3.org/2000/svg">
<path d="M141.196 85.4436C109.636 86.3724 84.2644 112.38 84.2644 144.27C84.2644 147.985 84.5738 151.391 85.1926 154.796L1.65184 166.562C0.4142 159.44 0.104783 152.01 0.104784 144.579C0.104791 66.2477 62.9151 2.77761 140.577 1.53917L141.196 85.4436Z" fill="#D0E1CD"/>
<path d="M85.1927 154.177C87.9774 169.348 96.3314 182.661 108.398 191.64L58.5834 259.445C28.5706 237.462 7.53066 204.024 1.65186 165.323C24.5482 162.537 57.3457 157.892 85.1927 154.177Z" fill="#A2C39B"/>
<path d="M143.053 287C111.493 287 82.4081 276.783 58.5835 259.445L108.708 191.64C118.3 198.761 130.367 202.786 143.362 202.786C159.142 202.786 173.684 196.594 184.204 186.377L245.467 243.964C219.477 270.591 183.276 287 143.053 287Z" fill="#73A469"/>
<path d="M183.276 186.686C194.724 175.85 201.84 160.679 201.84 143.96C201.84 131.576 198.127 120.12 191.32 110.522L259.7 61.2941C276.408 84.5148 286 113.309 286 143.96C286 183.59 269.911 219.195 244.23 245.203L183.276 186.686Z" fill="#458637"/>
<path d="M259.7 61.2939L191.32 110.522C180.8 95.0414 163.164 85.1339 143.052 85.1339C142.434 85.1339 141.815 85.1339 141.196 85.1339L140.577 0.919896C141.505 0.919896 142.124 0.919896 143.052 0.919896C191.32 0.919901 234.019 24.7599 259.7 61.2939Z" fill="#166805"/>
</svg>
